<?xml version="1.0" encoding="UTF-8" standalone="no"?>
<!-- Created with Inkscape (http://www.inkscape.org/) -->

<svg
   xmlns:dc="http://purl.org/dc/elements/1.1/"
   xmlns:cc="http://creativecommons.org/ns#"
   xmlns:rdf="http://www.w3.org/1999/02/22-rdf-syntax-ns#"
   xmlns:svg="http://www.w3.org/2000/svg"
   xmlns="http://www.w3.org/2000/svg"
   xmlns:xlink="http://www.w3.org/1999/xlink"
   xmlns:sodipodi="http://sodipodi.sourceforge.net/DTD/sodipodi-0.dtd"
   xmlns:inkscape="http://www.inkscape.org/namespaces/inkscape"
   width="512"
   height="512"
   viewBox="0 0 512.00001 512.00001"
   id="svg2"
   version="1.1"
   inkscape:version="0.91 r13725"
   enable-background="new"
   sodipodi:docname="planets.svg">
  <sodipodi:namedview
     id="base"
     pagecolor="#ffffff"
     bordercolor="#666666"
     borderopacity="1.0"
     inkscape:pageopacity="0.0"
     inkscape:pageshadow="2"
     inkscape:zoom="2.8284271"
     inkscape:cx="160.29313"
     inkscape:cy="734.46234"
     inkscape:document-units="px"
     inkscape:current-layer="layer1"
     showgrid="true"
     units="px"
     objecttolerance="20"
     inkscape:window-width="1832"
     inkscape:window-height="1057"
     inkscape:window-x="1592"
     inkscape:window-y="112"
     inkscape:window-maximized="1"
     gridtolerance="10">
    <inkscape:grid
       type="xygrid"
       id="grid4136"
       spacingx="16"
       spacingy="16"
       empspacing="6"
       snapvisiblegridlinesonly="true"
       enabled="true" />
  </sodipodi:namedview>
  <defs
     id="defs4">
    <pattern
       inkscape:collect="always"
       xlink:href="#Voronoi7423"
       id="pattern4382"
       patternTransform="matrix(2.152794,0,0,2.1527221,18.626121,-431.10779)" />
    <inkscape:path-effect
       cusp_linecap_type="round"
       end_linecap_type="zerowidth"
       miter_limit="4"
       linejoin_type="round"
       start_linecap_type="zerowidth"
       interpolator_beta="0.2"
       interpolator_type="CubicBezierJohan"
       sort_points="true"
       offset_points="0,0.5"
       is_visible="true"
       id="path-effect6646"
       effect="powerstroke" />
    <inkscape:path-effect
       cusp_linecap_type="round"
       end_linecap_type="zerowidth"
       miter_limit="4"
       linejoin_type="round"
       start_linecap_type="zerowidth"
       interpolator_beta="0.2"
       interpolator_type="CubicBezierJohan"
       sort_points="true"
       offset_points="0,0.5"
       is_visible="true"
       id="path-effect6642"
       effect="powerstroke" />
    <inkscape:path-effect
       is_visible="true"
       id="path-effect6640"
       effect="spiro" />
    <inkscape:path-effect
       cusp_linecap_type="round"
       end_linecap_type="zerowidth"
       miter_limit="4"
       linejoin_type="round"
       start_linecap_type="zerowidth"
       interpolator_beta="0.2"
       interpolator_type="CubicBezierJohan"
       sort_points="true"
       offset_points="0,1.2109198"
       is_visible="true"
       id="path-effect6629"
       effect="powerstroke" />
    <inkscape:path-effect
       is_visible="true"
       id="path-effect6627"
       effect="spiro" />
    <pattern
       patternUnits="userSpaceOnUse"
       patternTransform="translate(319.92235,31.975355)"
       height="63.747461"
       width="63.747461"
       id="Voronoi1413">
      <path
         id="path4181"
         d="M 19.525,0.292 19.540,0.000 M 7.688,3.842 7.950,0.000 M 7.688,3.842 15.537,7.177 M 15.537,7.177 19.525,0.292 M 19.525,0.292 24.134,8.224 M 5.618,6.610 7.688,3.842 M 5.618,6.610 6.058,7.049 M 15.537,7.177 16.600,8.968 M 16.600,8.968 24.134,8.224 M 3.147,8.462 5.618,6.610 M 24.134,8.224 26.962,9.277 M 6.058,7.049 11.526,13.802 M 6.058,7.049 15.638,13.291 M 15.638,13.291 16.600,8.968 M 11.526,13.802 15.565,14.186 M 15.565,14.186 15.638,13.291 M 3.147,8.462 6.348,16.200 M 6.348,16.200 11.526,13.802 M 26.962,9.277 28.768,12.569 M 15.565,14.186 17.261,17.974 M 17.261,17.974 28.768,12.569 M 28.768,12.569 34.452,16.075 M 16.590,20.884 17.261,17.974 M 16.554,20.998 16.590,20.884 M 16.590,20.884 34.924,18.703 M 34.452,16.075 34.924,18.703 M 9.156,23.189 16.554,20.998 M 5.905,22.629 6.348,16.200 M 5.905,22.629 9.156,23.189 M 50.567,24.442 51.133,24.343 M 51.133,24.343 57.583,11.476 M 57.583,11.476 63.747,2.010 M 51.133,24.343 53.004,26.768 M 34.924,18.703 35.631,21.675 M 35.631,21.675 57.583,11.476 M 35.631,21.675 35.872,23.860 M 53.004,26.768 56.996,30.299 M 56.996,30.299 63.747,16.576 M 35.872,23.860 36.761,24.873 M 36.761,24.873 50.567,24.442 M 16.554,20.998 22.366,28.676 M 22.366,28.676 35.872,23.860 M 20.688,33.010 22.366,28.676 M 9.156,23.189 13.347,35.459 M 13.347,35.459 20.688,33.010 M 34.452,16.075 47.469,0.000 M 56.996,30.299 61.116,35.449 M 36.761,24.873 38.496,36.005 M 38.496,36.005 39.160,36.718 M 39.160,36.718 42.315,38.926 M 53.424,40.467 61.116,35.449 M 20.688,33.010 25.994,40.920 M 25.994,40.920 38.496,36.005 M 42.315,38.926 44.808,40.315 M 44.808,40.315 50.567,24.442 M 25.544,42.860 25.994,40.920 M 44.808,40.315 45.586,40.870 M 45.586,40.870 53.004,26.768 M 21.437,45.904 25.544,42.860 M 35.511,49.310 42.315,38.926 M 32.920,48.477 39.160,36.718 M 32.920,48.477 35.511,49.310 M 45.586,40.870 47.289,42.429 M 47.289,42.429 53.424,40.467 M 52.858,49.796 59.891,49.904 M 53.424,40.467 59.891,49.904 M 25.544,42.860 30.506,48.930 M 30.506,48.930 32.920,48.477 M 47.139,45.538 47.289,42.429 M 47.139,45.538 52.858,49.796 M 46.206,47.643 47.139,45.538 M 52.858,49.796 54.590,53.875 M 29.370,53.685 30.506,48.930 M 29.370,53.685 32.014,54.923 M 35.511,49.310 40.817,52.908 M 40.817,52.908 46.206,47.643 M 32.014,54.923 40.264,54.919 M 40.264,54.919 40.817,52.908 M 2.671,45.577 13.347,35.459 M 2.671,45.577 21.437,45.904 M 40.264,54.919 40.630,57.748 M 54.590,53.875 63.747,53.675 M 59.891,49.904 63.747,52.161 M 46.206,47.643 51.226,58.934 M 51.226,58.934 54.590,53.875 M 21.437,45.904 22.397,58.495 M 22.397,58.495 22.825,58.813 M 22.825,58.813 29.370,53.685 M 40.630,57.748 51.181,61.027 M 51.181,61.027 51.226,58.934 M 32.014,54.923 35.171,63.747 M 37.416,63.747 40.630,57.748 M 0.000,46.859 2.671,45.577 M 0.000,53.693 22.397,58.495 M 22.825,58.813 24.458,63.747 M 0.000,25.152 5.905,22.629 M 0.000,8.797 3.147,8.462 M 51.181,61.027 52.736,63.747 M 61.116,35.449 63.747,35.605 M 26.962,9.277 29.235,0.000 "
         style="stroke:#000000" />
    </pattern>
    <filter
       inkscape:menu-tooltip="3D warped, fibered wood texture"
       inkscape:menu="Materials"
       inkscape:label="3D Wood"
       height="1.5"
       y="-0.25"
       width="1.5"
       x="-0.25"
       style="color-interpolation-filters:sRGB;"
       id="filter5809">
      <feGaussianBlur
         result="result8"
         stdDeviation="4"
         id="feGaussianBlur5811" />
      <feTurbulence
         baseFrequency="0.025 0.2"
         numOctaves="3"
         type="fractalNoise"
         result="result7"
         seed="22"
         id="feTurbulence5813" />
      <feComposite
         in2="result8"
         operator="in"
         in="SourceGraphic"
         result="result6"
         id="feComposite5815" />
      <feDisplacementMap
         in2="result6"
         result="result4"
         scale="50"
         yChannelSelector="A"
         xChannelSelector="A"
         in="result7"
         id="feDisplacementMap5817" />
      <feFlood
         flood-color="rgb(230,211,138)"
         flood-opacity="1"
         id="feFlood5819" />
      <feComposite
         in2="result4"
         operator="atop"
         result="result2"
         id="feComposite5821" />
      <feComposite
         in2="SourceGraphic"
         operator="atop"
         in="result2"
         result="result9"
         id="feComposite5823" />
      <feGaussianBlur
         result="result0"
         in="result9"
         stdDeviation="8"
         id="feGaussianBlur5825" />
      <feSpecularLighting
         specularExponent="15"
         specularConstant="0.7"
         surfaceScale="5"
         lighting-color="rgb(255,255,255)"
         result="result1"
         in="result0"
         id="feSpecularLighting5827">
        <feDistantLight
           azimuth="235"
           elevation="50"
           id="feDistantLight5829" />
      </feSpecularLighting>
      <feComposite
         operator="in"
         result="result2"
         in="result1"
         in2="result9"
         id="feComposite5831" />
      <feComposite
         k3="0.5"
         k2="0.5"
         operator="arithmetic"
         result="result4"
         in="result9"
         in2="result2"
         id="feComposite5833" />
      <feConvolveMatrix
         order="3 3"
         kernelMatrix="2 0 0 0 2 0 0 0 -2 "
         targetX="2"
         targetY="2"
         result="result10"
         id="feConvolveMatrix5835" />
      <feBlend
         mode="multiply"
         in="result10"
         in2="result10"
         id="feBlend5837" />
    </filter>
    <filter
       inkscape:label="Cracked Lava"
       inkscape:menu="Materials"
       inkscape:menu-tooltip="A volcanic texture, a little like leather"
       style="color-interpolation-filters:sRGB;"
       id="filter5863">
      <feGaussianBlur
         result="result0"
         in="SourceGraphic"
         stdDeviation="0.5"
         id="feGaussianBlur5865" />
      <feTurbulence
         baseFrequency="0.042"
         seed="488"
         numOctaves="7"
         result="result1"
         id="feTurbulence5867" />
      <feDisplacementMap
         result="result5"
         xChannelSelector="R"
         scale="0"
         in2="result1"
         in="result1"
         yChannelSelector="G"
         id="feDisplacementMap5869" />
      <feComposite
         result="result2"
         operator="in"
         in2="result5"
         in="result0"
         id="feComposite5871" />
      <feSpecularLighting
         lighting-color="rgb(255,230,136)"
         surfaceScale="2"
         result="result4"
         specularConstant="2"
         specularExponent="65"
         in="result2"
         id="feSpecularLighting5873">
        <feDistantLight
           elevation="62"
           azimuth="225"
           id="feDistantLight5875" />
      </feSpecularLighting>
      <feComposite
         k1="2.5"
         k3="1"
         k2="-0.5"
         in2="result2"
         in="result4"
         operator="arithmetic"
         result="result91"
         id="feComposite5877" />
      <feBlend
         result="fbSourceGraphic"
         mode="multiply"
         in2="result91"
         id="feBlend5879" />
      <feColorMatrix
         values="1 0 0 -1 0 1 0 1 -1 0 1 0 0 -1 0 -2 -0.5 0 5 -2"
         in="fbSourceGraphic"
         result="fbSourceGraphicAlpha"
         id="feColorMatrix5881" />
      <feGaussianBlur
         stdDeviation="8"
         in="fbSourceGraphicAlpha"
         result="result0"
         id="feGaussianBlur5883" />
      <feOffset
         dx="2"
         dy="2"
         in="result0"
         result="result3"
         id="feOffset5885" />
      <feSpecularLighting
         in="result0"
         result="result1"
         lighting-color="rgb(255,255,255)"
         surfaceScale="4"
         specularConstant="0.8"
         specularExponent="15"
         id="feSpecularLighting5887">
        <fePointLight
           x="-5000"
           y="-10000"
           z="20000"
           id="fePointLight5889" />
      </feSpecularLighting>
      <feComposite
         in2="fbSourceGraphicAlpha"
         in="result1"
         result="result2"
         operator="in"
         id="feComposite5891" />
      <feComposite
         in="fbSourceGraphic"
         result="result4"
         operator="arithmetic"
         k2="2"
         k3="2"
         in2="result2"
         id="feComposite5893" />
      <feBlend
         mode="darken"
         in2="result4"
         id="feBlend5895" />
    </filter>
    <filter
       inkscape:label="Bubbly Bumps"
       inkscape:menu="Bumps"
       inkscape:menu-tooltip="Flexible bubbles effect with some displacement"
       style="color-interpolation-filters:sRGB;"
       id="filter5927">
      <feGaussianBlur
         result="result0"
         in="SourceGraphic"
         stdDeviation="0.5"
         id="feGaussianBlur5929" />
      <feTurbulence
         baseFrequency="0.2"
         seed="300"
         numOctaves="10"
         result="result1"
         type="fractalNoise"
         id="feTurbulence5931" />
      <feGaussianBlur
         stdDeviation="0.5"
         result="result8"
         id="feGaussianBlur5933" />
      <feDisplacementMap
         result="result7"
         in2="result8"
         scale="5"
         in="result0"
         xChannelSelector="R"
         id="feDisplacementMap5935" />
      <feComposite
         result="result2"
         operator="in"
         in2="result1"
         in="result7"
         id="feComposite5937" />
      <feComposite
         k3="3"
         in2="result2"
         in="result0"
         operator="arithmetic"
         id="feComposite5939" />
      <feBlend
         result="fbSourceGraphic"
         mode="multiply"
         in2="result2"
         id="feBlend5941" />
      <feColorMatrix
         values="1 0 0 -1 0 1 0 1 -1 0 1 0 0 -1 0 -1.8 -0.5 0 5.7 -3.5 "
         in="fbSourceGraphic"
         result="fbSourceGraphicAlpha"
         id="feColorMatrix5943" />
      <feGaussianBlur
         stdDeviation="0.5"
         in="fbSourceGraphicAlpha"
         result="result0"
         id="feGaussianBlur5945" />
      <feSpecularLighting
         result="result6"
         surfaceScale="5"
         specularExponent="3"
         id="feSpecularLighting5947">
        <feDistantLight
           azimuth="225"
           elevation="10"
           id="feDistantLight5949" />
      </feSpecularLighting>
      <feComposite
         in2="fbSourceGraphicAlpha"
         in="result6"
         result="result2"
         operator="in"
         id="feComposite5951" />
      <feComposite
         in="fbSourceGraphic"
         result="result4"
         operator="arithmetic"
         k2="1"
         k3="0.7"
         in2="result2"
         id="feComposite5953" />
    </filter>
    <filter
       inkscape:label="Glowing Bubble"
       inkscape:menu="Ridges"
       inkscape:menu-tooltip="Bubble effect with refraction and glow"
       x="-0.25"
       y="-0.25"
       width="1.5"
       height="1.5"
       style="color-interpolation-filters:sRGB;"
       id="filter5955">
      <feGaussianBlur
         stdDeviation="1"
         result="result1"
         id="feGaussianBlur5957" />
      <feGaussianBlur
         stdDeviation="10"
         result="result6"
         in="result1"
         id="feGaussianBlur5959" />
      <feComposite
         operator="atop"
         in="result6"
         in2="result1"
         result="result8"
         id="feComposite5961" />
      <feComposite
         operator="xor"
         result="fbSourceGraphic"
         in="result6"
         in2="result8"
         id="feComposite5963" />
      <feColorMatrix
         result="fbSourceGraphicAlpha"
         in="fbSourceGraphic"
         values="0 0 0 -1 0 0 0 0 -1 0 0 0 0 -1 0 0 0 0 2 0 "
         id="feColorMatrix5965" />
      <feGaussianBlur
         result="result0"
         in="fbSourceGraphicAlpha"
         stdDeviation="1"
         id="feGaussianBlur5967" />
      <feSpecularLighting
         specularExponent="35"
         specularConstant="1.5"
         surfaceScale="-2"
         lighting-color="rgb(255,255,255)"
         result="result1"
         in="result0"
         id="feSpecularLighting5969">
        <feDistantLight
           azimuth="230"
           elevation="60"
           id="feDistantLight5971" />
      </feSpecularLighting>
      <feComposite
         operator="in"
         result="result2"
         in="result1"
         in2="fbSourceGraphicAlpha"
         id="feComposite5973" />
      <feComposite
         k3="1"
         k2="1"
         operator="arithmetic"
         result="result4"
         in="fbSourceGraphic"
         in2="result2"
         id="feComposite5975" />
      <feComposite
         operator="atop"
         in="result9"
         in2="result4"
         result="result91"
         id="feComposite5977" />
      <feBlend
         mode="multiply"
         in2="result91"
         id="feBlend5979" />
    </filter>
    <filter
       inkscape:label="Ripple"
       inkscape:menu="Distort"
       inkscape:menu-tooltip="Horizontal rippling of edges"
       style="color-interpolation-filters:sRGB;"
       id="filter6047">
      <feTurbulence
         numOctaves="1"
         baseFrequency="0.002 0.107"
         id="feTurbulence6049" />
      <feColorMatrix
         values="2 0 0 0 0 0 0 0 0 0 0 0 0 0 0 0 0 0 0.5 0.5"
         result="result91"
         id="feColorMatrix6051" />
      <feDisplacementMap
         yChannelSelector="A"
         xChannelSelector="R"
         scale="14.3"
         in="SourceGraphic"
         in2="result91"
         id="feDisplacementMap6053" />
    </filter>
    <filter
       inkscape:label="Blue Cheese"
       inkscape:menu="Overlays"
       inkscape:menu-tooltip="Marble-like bluish speckles"
       style="color-interpolation-filters:sRGB;"
       id="filter6055">
      <feTurbulence
         numOctaves="2"
         baseFrequency="0.063"
         id="feTurbulence6057" />
      <feColorMatrix
         values="0 0 0 0 0 0 0 0 0 0.5 0 0 0 0 0.5 0 0 0 -10 1"
         id="feColorMatrix6059" />
      <feGaussianBlur
         stdDeviation="1"
         result="result1"
         id="feGaussianBlur6061" />
      <feTurbulence
         numOctaves="3"
         baseFrequency="0.031"
         type="fractalNoise"
         result="result0"
         id="feTurbulence6063" />
      <feColorMatrix
         result="result2"
         values="1 0 0 0 0 0 1 0 0 0 0 0 1 0 0 0 0 0 2 -0.5"
         id="feColorMatrix6065" />
      <feComposite
         operator="in"
         in2="result2"
         in="result1"
         id="feComposite6067" />
      <feComposite
         in2="SourceGraphic"
         operator="atop"
         id="feComposite6069" />
    </filter>
    <filter
       inkscape:label="Frost"
       inkscape:menu="Overlays"
       inkscape:menu-tooltip="Flake-like white splotches"
       style="color-interpolation-filters:sRGB;"
       id="filter6071">
      <feTurbulence
         type="fractalNoise"
         numOctaves="5"
         baseFrequency="0.143"
         id="feTurbulence6073" />
      <feColorMatrix
         values="1 0 0 0 0 0 1 0 0 0 0 0 1 0 0 0 0 0 5 -3"
         id="feColorMatrix6075" />
      <feComposite
         operator="in"
         in2="SourceAlpha"
         id="feComposite6077" />
      <feMorphology
         operator="dilate"
         radius="2.7"
         result="result3"
         id="feMorphology6079" />
      <feTurbulence
         numOctaves="2"
         baseFrequency="0.121"
         result="result91"
         id="feTurbulence6081" />
      <feDisplacementMap
         in="result3"
         xChannelSelector="R"
         yChannelSelector="A"
         scale="10"
         result="result4"
         in2="result91"
         id="feDisplacementMap6083" />
      <feFlood
         flood-opacity="1"
         flood-color="rgb(255,255,255)"
         id="feFlood6085" />
      <feComposite
         result="result2"
         operator="in"
         in2="result4"
         id="feComposite6087" />
      <feComposite
         in="result2"
         operator="over"
         in2="SourceGraphic"
         id="feComposite6089" />
    </filter>
    <pattern
       id="Voronoi7423"
       width="59.997612"
       height="59.997612"
       patternTransform="translate(33.890793,114.21801)"
       patternUnits="userSpaceOnUse">
      <path
         style="stroke:#000000"
         d="M 12.681,0.131 12.682,0.000 M 20.695,2.380 21.175,0.000 M 18.085,0.000 19.282,2.857 M 19.282,2.857 20.695,2.380 M 20.695,2.380 23.622,2.908 M 39.694,1.747 41.005,0.000 M 4.945,2.716 5.774,3.265 M 21.381,5.573 23.622,2.908 M 23.622,2.908 25.828,2.786 M 5.774,3.265 9.310,4.296 M 9.310,4.296 12.681,0.131 M 25.828,2.786 29.043,1.120 M 29.043,1.120 29.186,0.000 M 21.381,5.573 23.528,6.886 M 23.528,6.886 25.828,2.786 M 39.433,7.179 39.694,1.747 M 43.023,0.000 43.181,5.885 M 50.636,0.000 51.550,5.509 M 5.774,3.265 6.233,7.714 M 43.181,5.885 46.723,7.447 M 46.723,7.447 48.265,0.000 M 39.433,7.179 42.409,7.226 M 42.409,7.226 43.181,5.885 M 17.320,5.870 19.282,2.857 M 17.320,5.870 21.381,5.573 M 42.409,7.226 42.499,8.434 M 12.681,0.131 16.775,6.377 M 16.775,6.377 17.320,5.870 M 16.765,6.421 16.775,6.377 M 42.178,9.312 42.499,8.434 M 36.618,8.289 39.433,7.179 M 36.618,8.289 38.044,9.359 M 38.044,9.359 41.538,10.171 M 41.538,10.171 42.178,9.312 M 29.043,1.120 31.364,6.327 M 6.233,7.714 10.596,8.285 M 9.310,4.296 10.596,8.285 M 46.723,7.447 48.299,9.371 M 48.299,9.371 51.550,5.509 M 34.192,7.947 36.618,8.289 M 33.545,7.601 39.694,1.747 M 33.545,7.601 34.192,7.947 M 31.364,6.327 32.445,7.498 M 32.445,7.498 33.545,7.601 M 32.107,8.472 32.445,7.498 M 51.550,5.509 56.545,9.164 M 56.545,9.164 57.437,0.000 M 11.935,9.256 16.765,6.421 M 23.183,10.198 23.528,6.886 M 23.183,10.198 31.364,6.327 M 10.596,8.285 11.510,9.360 M 11.510,9.360 11.935,9.256 M 48.166,10.701 48.299,9.371 M 11.935,9.256 16.127,12.982 M 42.499,8.434 48.042,10.791 M 48.042,10.791 48.166,10.701 M 56.545,9.164 57.172,10.271 M 27.459,13.101 32.107,8.472 M 1.101,10.356 6.233,7.714 M 42.178,9.312 46.289,12.921 M 46.289,12.921 48.042,10.791 M 0.427,10.409 1.101,10.356 M 16.127,12.982 21.256,11.659 M 16.765,6.421 21.256,11.659 M 1.101,10.356 10.015,12.322 M 10.015,12.322 11.510,9.360 M 0.000,8.699 4.945,2.716 M 0.000,10.250 0.427,10.409 M 22.031,11.835 23.183,10.198 M 21.256,11.659 21.583,11.849 M 21.583,11.849 22.031,11.835 M 22.031,11.835 23.563,13.025 M 23.563,13.025 27.459,13.101 M 38.044,9.359 40.199,14.367 M 40.199,14.367 41.196,14.272 M 41.196,14.272 41.538,10.171 M 19.740,15.310 21.583,11.849 M 0.427,10.409 3.950,15.644 M 48.166,10.701 54.227,13.431 M 54.227,13.431 57.172,10.271 M 10.015,12.322 10.091,14.340 M 10.091,14.340 10.119,14.383 M 34.192,7.947 37.876,15.188 M 37.876,15.188 40.199,14.367 M 3.950,15.644 4.779,16.467 M 4.779,16.467 10.091,14.340 M 17.737,17.238 19.740,15.310 M 41.196,14.272 44.673,15.811 M 44.673,15.811 46.289,12.921 M 10.119,14.383 14.314,17.003 M 14.314,17.003 16.127,12.982 M 19.740,15.310 22.121,18.922 M 9.085,18.886 10.119,14.383 M 23.563,13.025 24.859,17.860 M 14.314,17.003 14.403,17.128 M 14.403,17.128 17.737,17.238 M 22.121,18.922 24.345,18.400 M 24.345,18.400 24.859,17.860 M 27.459,13.101 30.584,17.449 M 30.584,17.449 32.736,17.166 M 32.107,8.472 32.736,17.166 M 17.737,17.238 19.113,19.824 M 24.859,17.860 28.751,18.789 M 28.751,18.789 30.584,17.449 M 19.113,19.824 20.537,20.316 M 20.537,20.316 22.121,18.922 M 13.804,19.964 14.403,17.128 M 9.085,18.886 10.182,20.851 M 10.182,20.851 13.804,19.964 M 4.473,19.830 4.779,16.467 M 4.473,19.830 9.085,18.886 M 32.736,17.166 35.184,18.257 M 35.184,18.257 37.876,15.188 M 20.537,20.316 21.204,22.051 M 53.690,18.404 54.227,13.431 M 28.283,22.486 28.751,18.789 M 35.184,18.257 36.118,20.740 M 28.283,22.486 31.481,23.751 M 31.481,23.751 36.118,20.740 M 21.204,22.051 23.252,23.604 M 23.252,23.604 24.221,23.609 M 24.221,23.609 24.345,18.400 M 50.865,20.724 53.690,18.404 M 31.481,23.751 31.561,25.229 M 21.367,25.403 23.252,23.604 M 21.155,25.513 21.367,25.403 M 3.246,22.268 4.473,19.830 M 13.804,19.964 15.544,23.587 M 15.544,23.587 19.113,19.824 M 17.251,24.574 21.204,22.051 M 17.251,24.574 21.155,25.513 M 24.221,23.609 25.924,24.495 M 25.924,24.495 25.925,24.495 M 25.925,24.495 28.283,22.486 M 44.673,15.811 46.742,21.265 M 46.742,21.265 50.865,20.724 M 50.865,20.724 53.968,25.448 M 53.920,25.775 53.968,25.448 M 15.544,23.587 15.590,24.794 M 15.590,24.794 17.251,24.574 M 45.652,22.540 46.742,21.265 M 36.118,20.740 39.449,23.952 M 39.449,23.952 45.652,22.540 M 20.422,28.218 21.155,25.513 M 45.652,22.540 46.375,25.691 M 20.422,28.218 23.503,28.521 M 21.367,25.403 23.503,28.521 M 23.503,28.521 23.568,28.543 M 23.568,28.543 25.924,24.495 M 3.246,22.268 6.830,25.596 M 31.561,25.229 35.484,27.726 M 6.830,25.596 7.755,25.861 M 7.755,25.861 10.182,20.851 M 46.375,25.691 51.785,29.484 M 51.785,29.484 53.920,25.775 M 25.925,24.495 29.124,28.634 M 29.124,28.634 31.561,25.229 M 51.785,29.484 51.803,29.627 M 51.490,30.040 51.803,29.627 M 0.000,17.893 3.950,15.644 M 0.000,22.219 3.246,22.268 M 53.920,25.775 56.265,30.372 M 29.124,28.634 29.245,29.291 M 29.245,29.291 35.484,27.726 M 2.090,30.066 6.830,25.596 M 35.484,27.726 37.726,28.000 M 37.726,28.000 39.449,23.952 M 37.726,28.000 37.781,28.616 M 51.803,29.627 55.203,31.497 M 55.203,31.497 56.265,30.372 M 37.430,29.877 37.781,28.616 M 55.164,32.179 55.203,31.497 M 51.151,33.378 51.490,30.040 M 51.151,33.378 55.164,32.179 M 23.568,28.543 24.654,31.816 M 37.781,28.616 45.441,32.164 M 45.806,32.038 46.375,25.691 M 45.806,32.038 51.490,30.040 M 37.430,29.877 38.120,33.036 M 45.441,32.164 45.789,32.080 M 45.789,32.080 45.806,32.038 M 36.883,34.956 38.120,33.036 M 7.755,25.861 12.783,30.055 M 12.783,30.055 15.590,24.794 M 12.783,30.055 12.836,30.249 M 56.265,30.372 59.998,29.129 M 53.968,25.448 59.998,25.916 M 38.120,33.036 41.733,35.180 M 41.733,35.180 45.441,32.164 M 18.269,33.370 24.654,31.816 M 55.164,32.179 56.080,35.248 M 32.125,35.414 36.883,34.956 M 12.836,30.249 15.011,31.743 M 15.011,31.743 20.422,28.218 M 24.654,31.816 28.361,33.246 M 28.361,33.246 29.245,29.291 M 54.702,36.121 56.080,35.248 M 2.090,30.066 8.165,34.500 M 8.165,34.500 12.836,30.249 M 29.437,34.080 37.430,29.877 M 28.361,33.246 28.650,33.785 M 28.650,33.785 29.437,34.080 M 29.437,34.080 30.141,34.747 M 30.141,34.747 32.125,35.414 M 36.883,34.956 37.156,37.474 M 54.538,38.012 54.702,36.121 M 54.538,38.012 55.040,38.618 M 16.732,33.582 18.269,33.370 M 7.846,35.006 8.165,34.500 M 15.011,31.743 16.476,33.472 M 16.476,33.472 16.732,33.582 M 49.483,35.903 51.151,33.378 M 49.483,35.903 54.702,36.121 M 16.732,33.582 19.188,36.985 M 41.733,35.180 41.755,37.470 M 45.789,32.080 49.007,36.105 M 49.007,36.105 49.483,35.903 M 3.497,36.472 4.954,36.545 M 4.954,36.545 7.846,35.006 M 37.156,37.474 41.044,37.951 M 41.044,37.951 41.755,37.470 M 19.188,36.985 19.359,37.885 M 36.355,38.594 37.156,37.474 M 18.269,33.370 26.192,37.288 M 26.192,37.288 28.650,33.785 M 32.125,35.414 35.589,39.033 M 35.589,39.033 36.355,38.594 M 36.355,38.594 38.727,40.407 M 17.180,40.903 19.359,37.885 M 19.188,36.985 25.745,38.156 M 25.745,38.156 26.192,37.288 M 55.040,38.618 58.865,39.637 M 38.727,40.407 39.746,40.870 M 39.746,40.870 41.044,37.951 M 25.653,39.438 25.745,38.156 M 19.359,37.885 20.553,41.027 M 20.553,41.027 25.653,39.438 M 55.040,38.618 56.362,41.382 M 56.362,41.382 58.865,39.637 M 39.746,40.870 39.833,41.467 M 30.141,34.747 31.758,40.967 M 0.000,30.693 2.090,30.066 M 0.000,35.350 3.497,36.472 M 39.632,41.864 39.833,41.467 M 56.080,41.734 56.362,41.382 M 17.180,40.903 20.361,41.741 M 20.361,41.741 20.553,41.027 M 25.653,39.438 26.203,40.948 M 26.203,40.948 31.758,40.967 M 58.865,39.637 59.998,38.994 M 56.080,35.248 59.998,36.277 M 34.875,41.950 38.727,40.407 M 34.875,41.950 37.197,42.996 M 37.197,42.996 39.632,41.864 M 52.084,41.638 54.538,38.012 M 52.084,41.638 56.080,41.734 M 34.229,41.735 35.589,39.033 M 34.229,41.735 34.875,41.950 M 13.630,41.461 16.476,33.472 M 13.630,41.461 14.081,41.828 M 14.081,41.828 17.180,40.903 M 7.846,35.006 10.796,41.869 M 10.796,41.869 13.630,41.461 M 51.139,41.974 52.084,41.638 M 31.758,40.967 33.060,42.294 M 33.060,42.294 34.229,41.735 M 47.733,40.998 49.007,36.105 M 47.733,40.998 51.139,41.974 M 41.755,37.470 47.580,41.094 M 47.580,41.094 47.733,40.998 M 4.954,36.545 5.393,43.130 M 20.306,43.665 20.361,41.741 M 25.979,43.465 26.203,40.948 M 14.081,41.828 15.795,44.149 M 15.795,44.149 20.306,43.665 M 53.690,18.404 59.998,20.069 M 56.080,41.734 57.162,44.918 M 25.979,43.465 26.832,44.590 M 26.832,44.590 27.408,44.783 M 39.833,41.467 46.582,42.723 M 46.582,42.723 47.580,41.094 M 20.306,43.665 21.215,44.652 M 21.215,44.652 25.979,43.465 M 1.235,43.930 5.393,43.130 M 1.235,43.930 2.003,45.540 M 0.655,43.809 3.497,36.472 M 0.655,43.809 1.235,43.930 M 21.200,45.082 21.215,44.652 M 27.408,44.783 32.283,44.760 M 32.283,44.760 33.060,42.294 M 25.743,47.094 26.832,44.590 M 25.727,47.116 25.743,47.094 M 5.393,43.130 8.336,44.402 M 8.336,44.402 10.796,41.869 M 15.451,46.432 15.795,44.149 M 24.744,47.935 25.727,47.116 M 21.200,45.082 21.953,47.347 M 21.953,47.347 24.744,47.935 M 39.632,41.864 41.072,46.389 M 2.003,45.540 2.825,48.714 M 51.139,41.974 53.895,46.969 M 53.895,46.969 57.162,44.918 M 41.072,46.389 45.734,45.431 M 45.734,45.431 46.582,42.723 M 17.482,48.215 21.200,45.082 M 15.451,46.432 17.427,48.233 M 17.427,48.233 17.482,48.215 M 32.283,44.760 33.037,46.735 M 37.197,42.996 38.307,47.310 M 45.734,45.431 46.079,46.246 M 17.482,48.215 21.379,49.002 M 21.379,49.002 21.953,47.347 M 2.825,48.714 5.997,48.608 M 2.003,45.540 5.997,48.608 M 38.307,47.310 39.375,47.554 M 39.375,47.554 41.072,46.389 M 33.037,46.735 35.081,47.944 M 35.081,47.944 38.307,47.310 M 46.079,46.246 53.637,47.984 M 53.637,47.984 53.895,46.969 M 45.705,48.359 46.260,47.863 M 46.079,46.246 46.260,47.863 M 53.637,47.984 53.660,48.164 M 53.660,48.164 55.559,48.821 M 25.743,47.094 29.095,49.548 M 27.408,44.783 29.095,49.548 M 1.667,50.276 2.825,48.714 M 11.790,48.819 15.451,46.432 M 39.375,47.554 40.130,50.539 M 40.130,50.539 45.705,48.359 M 29.095,49.548 29.503,50.260 M 29.503,50.260 33.037,46.735 M 52.918,50.125 53.660,48.164 M 46.260,47.863 47.679,50.805 M 47.679,50.805 52.918,50.125 M 47.645,50.993 47.679,50.805 M 5.997,48.608 8.953,49.103 M 8.953,49.103 9.091,49.024 M 8.336,44.402 9.091,49.024 M 9.091,49.024 9.367,49.152 M 9.367,49.152 11.790,48.819 M 21.379,49.002 21.565,51.391 M 1.667,50.276 7.741,50.440 M 7.741,50.440 8.953,49.103 M 17.250,51.945 17.427,48.233 M 17.250,51.945 21.565,51.391 M 11.790,48.819 17.058,52.131 M 17.058,52.131 17.250,51.945 M 34.873,52.704 35.081,47.944 M 16.886,52.678 17.058,52.131 M 9.367,49.152 11.317,53.285 M 16.886,52.678 17.830,54.207 M 25.727,47.116 28.663,52.655 M 28.663,52.655 29.503,50.260 M 40.130,50.539 40.658,53.440 M 40.658,53.440 45.705,48.359 M 11.317,53.285 13.288,55.222 M 13.288,55.222 16.886,52.678 M 34.873,52.704 40.607,54.064 M 40.607,54.064 40.658,53.440 M 47.645,50.993 51.732,55.851 M 21.565,51.391 25.265,54.199 M 24.744,47.935 25.265,54.199 M 51.732,55.851 54.484,55.476 M 52.918,50.125 54.484,55.476 M 55.559,48.821 59.998,48.501 M 57.162,44.918 59.998,45.540 M 40.607,54.064 41.860,56.440 M 41.860,56.440 43.066,57.594 M 43.066,57.594 47.645,50.993 M 17.830,54.207 27.214,56.682 M 25.265,54.199 27.214,56.682 M 27.214,56.682 27.573,57.047 M 27.573,57.047 28.663,52.655 M 27.573,57.047 27.795,57.625 M 27.795,57.625 34.873,52.704 M 43.066,57.594 44.101,59.998 M 44.414,59.998 51.732,55.851 M 27.791,58.944 27.795,57.625 M 27.791,58.944 41.860,56.440 M 54.484,55.476 59.998,58.365 M 55.559,48.821 59.998,54.351 M 0.953,59.998 7.741,50.440 M 3.640,59.998 11.317,53.285 M 17.830,54.207 18.521,59.998 M 27.569,59.998 27.791,58.944 M 13.187,59.998 13.288,55.222 M 4.270,0.000 4.945,2.716 M 0.000,43.820 0.655,43.809 M 0.000,51.726 1.667,50.276 M 57.172,10.271 59.998,10.312 "
         id="path6377" />
    </pattern>
    <pattern
       patternUnits="userSpaceOnUse"
       patternTransform="translate(187.79752,27.850519)"
       height="71.997131"
       width="71.997131"
       id="Voronoi372">
      <path
         id="path6755"
         d="M 35.051,0.000 36.343,6.474 M 19.959,2.218 20.203,0.000 M 8.606,1.535 9.221,0.000 M 9.451,0.000 16.719,4.135 M 16.719,4.135 19.959,2.218 M 19.959,2.218 23.860,5.388 M 23.860,5.388 30.172,3.245 M 30.172,3.245 31.471,0.000 M 32.726,6.842 36.343,6.474 M 30.172,3.245 30.837,5.641 M 30.837,5.641 32.726,6.842 M 39.754,0.000 40.480,7.370 M 36.343,6.474 40.126,7.617 M 40.126,7.617 40.480,7.370 M 38.410,9.248 40.126,7.617 M 22.815,8.702 23.860,5.388 M 37.987,9.514 38.410,9.248 M 8.606,1.535 12.991,9.410 M 32.726,6.842 36.568,10.240 M 36.568,10.240 37.987,9.514 M 61.244,0.000 62.044,5.409 M 62.044,5.409 68.356,8.159 M 61.625,6.792 62.044,5.409 M 40.480,7.370 44.640,9.680 M 44.640,9.680 48.777,0.000 M 44.640,9.680 44.713,9.799 M 16.015,9.709 16.719,4.135 M 16.015,9.709 22.815,8.702 M 49.048,0.000 50.907,10.481 M 50.907,10.481 57.494,0.000 M 2.894,8.128 8.606,1.535 M 2.894,8.128 12.991,9.410 M 57.548,10.523 61.625,6.792 M 61.625,6.792 62.996,10.561 M 15.517,10.313 16.015,9.709 M 12.991,9.410 14.371,10.525 M 14.371,10.525 15.517,10.313 M 62.996,10.561 66.926,13.544 M 50.860,10.922 50.907,10.481 M 50.860,10.922 57.548,10.523 M 44.713,9.799 47.851,11.515 M 47.851,11.515 49.921,11.769 M 49.921,11.769 50.860,10.922 M 38.410,9.248 41.336,14.396 M 41.336,14.396 44.713,9.799 M 37.987,9.514 40.282,15.147 M 57.371,15.270 57.548,10.523 M 40.282,15.147 41.010,15.145 M 41.010,15.145 41.336,14.396 M 34.499,15.246 36.568,10.240 M 34.499,15.246 34.948,15.651 M 34.948,15.651 40.282,15.147 M 66.926,13.544 71.997,13.947 M 68.356,8.159 71.997,12.212 M 62.417,17.161 62.996,10.561 M 28.729,14.582 30.837,5.641 M 28.729,14.582 34.499,15.246 M 57.371,15.270 61.241,17.584 M 61.241,17.584 62.417,17.161 M 62.417,17.161 64.488,17.943 M 64.488,17.943 66.926,13.544 M 34.948,15.651 35.534,17.884 M 43.999,18.104 47.851,11.515 M 35.534,17.884 36.755,19.146 M 41.010,15.145 43.404,18.275 M 43.404,18.275 43.999,18.104 M 22.815,8.702 26.482,15.700 M 26.482,15.700 28.729,14.582 M 59.436,21.108 61.241,17.584 M 49.921,11.769 52.053,18.989 M 52.053,18.989 57.371,15.270 M 43.999,18.104 51.909,19.666 M 51.909,19.666 52.053,18.989 M 36.755,19.146 41.883,21.535 M 41.883,21.535 43.404,18.275 M 41.883,21.535 41.942,22.201 M 7.205,18.406 14.371,10.525 M 36.409,24.459 36.755,19.146 M 24.066,19.133 26.482,15.700 M 51.909,19.666 52.286,21.215 M 52.286,21.215 59.436,21.108 M 36.409,24.459 36.618,24.586 M 32.259,23.742 35.534,17.884 M 32.259,23.742 36.409,24.459 M 24.066,19.133 32.116,23.795 M 32.116,23.795 32.259,23.742 M 41.942,22.201 52.157,21.758 M 52.157,21.758 52.286,21.215 M 36.618,24.586 41.777,23.680 M 41.777,23.680 41.942,22.201 M 64.488,17.943 69.172,21.824 M 7.205,18.406 22.150,20.021 M 15.517,10.313 22.150,20.021 M 22.150,20.021 22.349,20.136 M 22.349,20.136 24.066,19.133 M 57.989,27.303 62.745,26.474 M 59.436,21.108 62.745,26.474 M 28.712,28.722 31.421,28.418 M 31.421,28.418 32.116,23.795 M 2.592,20.214 7.205,18.406 M 36.539,29.127 36.618,24.586 M 36.438,29.197 36.539,29.127 M 51.762,26.135 52.157,21.758 M 51.762,26.135 57.989,27.303 M 2.592,20.214 7.867,25.752 M 7.867,25.752 21.308,25.300 M 21.308,25.300 22.349,20.136 M 62.745,26.474 63.693,26.841 M 63.693,26.841 69.172,21.824 M 31.421,28.418 32.332,29.404 M 32.332,29.404 36.438,29.197 M 21.308,25.300 21.360,25.614 M 21.360,25.614 23.280,27.657 M 23.280,27.657 28.712,28.722 M 12.437,30.390 18.657,29.356 M 18.657,29.356 21.360,25.614 M 41.777,23.680 44.159,28.439 M 7.867,25.752 9.355,29.618 M 9.355,29.618 12.437,30.390 M 18.186,31.706 18.657,29.356 M 44.159,28.439 50.240,28.232 M 50.240,28.232 51.762,26.135 M 32.173,32.169 32.332,29.404 M 36.539,29.127 43.233,29.500 M 43.233,29.500 44.159,28.439 M 69.172,21.824 71.997,21.277 M 31.109,33.588 32.173,32.169 M 42.505,32.341 43.233,29.500 M 32.173,32.169 36.717,34.515 M 36.438,29.197 36.717,34.515 M 28.405,34.563 28.712,28.722 M 28.405,34.563 31.109,33.588 M 0.000,10.311 2.894,8.128 M 0.000,19.656 2.592,20.214 M 12.437,30.390 15.895,34.957 M 15.895,34.957 18.186,31.706 M 50.240,28.232 52.106,33.608 M 8.470,35.413 9.355,29.618 M 15.484,36.583 15.895,34.957 M 42.505,32.341 47.613,37.768 M 47.613,37.768 52.106,33.608 M 23.280,27.657 25.462,36.683 M 25.462,36.683 28.405,34.563 M 8.470,35.413 10.423,37.406 M 10.423,37.406 15.484,36.583 M 47.386,38.450 47.613,37.768 M 36.717,34.515 38.359,37.129 M 38.359,37.129 42.505,32.341 M 52.106,33.608 57.029,36.516 M 57.029,36.516 57.329,36.524 M 57.329,36.524 57.989,27.303 M 38.117,38.428 38.359,37.129 M 31.109,33.588 35.027,39.454 M 35.027,39.454 38.117,38.428 M 47.386,38.450 53.090,41.891 M 53.090,41.891 57.029,36.516 M 18.186,31.706 24.696,39.103 M 24.696,39.103 25.462,36.683 M 15.484,36.583 20.247,40.592 M 38.117,38.428 41.600,41.611 M 10.116,42.575 10.423,37.406 M 10.116,42.575 11.482,43.686 M 24.526,40.492 24.696,39.103 M 20.247,40.592 23.786,40.838 M 23.786,40.838 24.526,40.492 M 5.780,44.256 10.116,42.575 M 57.329,36.524 65.518,38.343 M 65.518,38.343 66.042,38.175 M 63.693,26.841 66.042,38.175 M 66.042,38.175 67.531,38.530 M 11.482,43.686 14.437,44.701 M 14.437,44.701 20.247,40.592 M 41.600,41.611 43.659,42.780 M 43.659,42.780 47.386,38.450 M 24.526,40.492 29.932,43.019 M 29.932,43.019 35.027,39.454 M 60.871,45.015 65.518,38.343 M 43.659,42.780 44.155,44.097 M 52.561,45.803 53.090,41.891 M 44.155,44.097 48.855,46.742 M 48.855,46.742 52.561,45.803 M 41.761,48.047 44.155,44.097 M 35.776,49.247 41.761,48.047 M 60.871,45.015 65.090,51.029 M 65.090,51.029 67.531,38.530 M 33.583,48.582 41.600,41.611 M 33.583,48.582 35.776,49.247 M 52.561,45.803 57.309,48.264 M 57.309,48.264 60.871,45.015 M 21.157,49.874 23.786,40.838 M 29.932,43.019 31.907,48.475 M 31.907,48.475 33.583,48.582 M 65.090,51.029 65.312,51.824 M 14.437,44.701 15.925,50.413 M 31.554,49.226 31.907,48.475 M 5.532,51.623 7.161,51.221 M 5.780,44.256 7.161,51.221 M 61.962,52.729 65.312,51.824 M 0.000,50.088 5.532,51.623 M 15.925,50.413 19.166,51.396 M 19.166,51.396 21.157,49.874 M 7.161,51.221 9.045,51.933 M 9.045,51.933 11.482,43.686 M 21.157,49.874 28.495,52.021 M 28.495,52.021 31.554,49.226 M 57.309,48.264 57.558,51.401 M 57.558,51.401 61.962,52.729 M 0.000,37.006 8.470,35.413 M 0.000,42.643 5.780,44.256 M 9.045,51.933 10.640,53.198 M 10.640,53.198 15.925,50.413 M 0.000,53.002 3.004,56.843 M 3.004,56.843 5.532,51.623 M 35.776,49.247 40.013,55.675 M 31.554,49.226 35.268,56.853 M 35.268,56.853 35.750,56.917 M 35.750,56.917 40.013,55.675 M 34.091,57.596 35.268,56.853 M 10.640,53.198 10.710,56.111 M 19.166,51.396 20.250,56.672 M 65.312,51.824 71.824,54.222 M 27.304,57.253 28.495,52.021 M 27.304,57.253 34.091,57.596 M 40.013,55.675 43.197,56.172 M 41.761,48.047 43.197,56.172 M 20.250,56.672 26.477,58.311 M 26.477,58.311 27.304,57.253 M 54.179,57.514 57.558,51.401 M 48.085,57.551 48.855,46.742 M 61.962,52.729 64.017,60.342 M 64.017,60.342 71.824,54.222 M 48.085,57.551 50.939,58.243 M 50.939,58.243 54.179,57.514 M 3.002,60.340 3.004,56.843 M 3.002,60.340 10.710,56.111 M 43.197,56.172 45.764,58.066 M 45.764,58.066 48.085,57.551 M 26.477,58.311 27.117,62.192 M 27.117,62.192 32.487,63.781 M 32.487,63.781 34.091,57.596 M 10.710,56.111 15.205,62.006 M 15.205,62.006 20.250,56.672 M 35.750,56.917 37.762,64.489 M 32.487,63.781 34.098,65.202 M 34.098,65.202 37.762,64.489 M 54.179,57.514 62.281,62.815 M 62.281,62.815 64.017,60.342 M 33.960,65.643 34.098,65.202 M 33.805,67.657 33.960,65.643 M 33.805,67.657 33.817,67.774 M 33.817,67.774 36.573,70.194 M 1.130,63.387 3.002,60.340 M 37.762,64.489 41.954,65.004 M 41.954,65.004 45.764,58.066 M 36.573,70.194 39.398,70.180 M 50.939,58.243 52.320,68.440 M 35.722,71.997 36.573,70.194 M 36.505,71.997 39.398,70.180 M 41.954,65.004 43.076,68.584 M 43.076,68.584 52.320,68.440 M 39.398,70.180 42.875,69.589 M 42.875,69.589 43.076,68.584 M 1.130,63.387 14.396,69.581 M 14.396,69.581 14.851,69.769 M 14.851,69.769 15.205,62.006 M 32.983,71.997 33.817,67.774 M 19.879,71.997 27.117,62.192 M 22.277,71.997 33.960,65.643 M 71.824,54.222 71.997,54.181 M 67.531,38.530 71.997,39.215 M 14.851,69.769 16.167,71.997 M 25.444,71.997 33.805,67.657 M 52.320,68.440 56.019,71.997 M 62.281,62.815 64.277,71.997 M 0.000,63.647 1.130,63.387 M 0.115,71.997 14.396,69.581 M 42.875,69.589 42.981,71.997 M 68.356,8.159 71.997,5.653 "
         style="stroke:#000000" />
    </pattern>
    <filter
       inkscape:label="Clouds"
       inkscape:menu="Overlays"
       inkscape:menu-tooltip="Airy, fluffy, sparse white clouds"
       style="color-interpolation-filters:sRGB;"
       id="filter7060">
      <feTurbulence
         numOctaves="3"
         baseFrequency="0.040 0.107"
         type="fractalNoise"
         id="feTurbulence7062" />
      <feColorMatrix
         result="result0"
         values="1 0 0 0 0 0 1 0 0 0 0 0 1 0 0 0 0 0 5 -2.7"
         id="feColorMatrix7064" />
      <feFlood
         flood-opacity="1"
         flood-color="rgb(255,255,255)"
         id="feFlood7066" />
      <feComposite
         operator="in"
         in2="result0"
         id="feComposite7068" />
      <feComposite
         operator="atop"
         in2="SourceGraphic"
         id="feComposite7070" />
    </filter>
    <filter
       inkscape:label="Matte Ridge"
       inkscape:menu="Ridges"
       inkscape:menu-tooltip="Soft pastel ridge"
       style="color-interpolation-filters:sRGB;"
       id="filter7126">
      <feGaussianBlur
         stdDeviation="0.5"
         result="result1"
         id="feGaussianBlur7128" />
      <feBlend
         in="SourceGraphic"
         mode="normal"
         result="result5"
         in2="result1"
         id="feBlend7130" />
      <feGaussianBlur
         stdDeviation="3"
         result="result6"
         in="result5"
         id="feGaussianBlur7132" />
      <feComposite
         operator="xor"
         in="result6"
         in2="result6"
         result="result8"
         id="feComposite7134" />
      <feComposite
         operator="in"
         result="fbSourceGraphic"
         in="result6"
         in2="result8"
         id="feComposite7136" />
      <feColorMatrix
         result="fbSourceGraphicAlpha"
         in="fbSourceGraphic"
         values="0 0 0 -1 0 0 0 0 -1 0 0 0 0 -1 0 0 0 0 1 0 "
         id="feColorMatrix7138" />
      <feGaussianBlur
         result="result0"
         in="fbSourceGraphic"
         stdDeviation="0.5"
         id="feGaussianBlur7140" />
      <feSpecularLighting
         specularExponent="55"
         specularConstant="2"
         surfaceScale="2"
         lighting-color="rgb(255,255,255)"
         result="result1"
         in="result0"
         id="feSpecularLighting7142">
        <fePointLight
           z="20000"
           y="-10000"
           x="-5000"
           id="fePointLight7144" />
      </feSpecularLighting>
      <feComposite
         operator="arithmetic"
         result="result2"
         in="result1"
         in2="fbSourceGraphicAlpha"
         k1="1"
         id="feComposite7146" />
      <feComposite
         k3="1"
         k2="0.5"
         operator="arithmetic"
         result="result4"
         in="fbSourceGraphic"
         in2="result2"
         id="feComposite7148" />
      <feComposite
         operator="over"
         in="result9"
         in2="result4"
         result="result91"
         id="feComposite7150" />
      <feBlend
         mode="screen"
         in2="result91"
         id="feBlend7152" />
    </filter>
    <filter
       x="-0.15"
       width="1.3"
       y="-0.15"
       height="1.3"
       inkscape:menu-tooltip="Stone wall texture to use with not too saturated colors"
       inkscape:menu="Textures"
       inkscape:label="Stone Wall"
       style="color-interpolation-filters:sRGB;"
       id="filter7210">
      <feTurbulence
         type="turbulence"
         numOctaves="5"
         baseFrequency="0.08 0.175"
         seed="25"
         id="feTurbulence7212" />
      <feColorMatrix
         result="result5"
         values="1 0 0 0 0 0 1 0 0 0 0 0 1 0 0 0 0 0 2 0 "
         id="feColorMatrix7214" />
      <feComposite
         in="SourceGraphic"
         operator="in"
         in2="result5"
         id="feComposite7216" />
      <feMorphology
         operator="dilate"
         radius="0.65"
         result="result3"
         id="feMorphology7218" />
      <feTurbulence
         numOctaves="7"
         baseFrequency="0.05 0.09"
         type="fractalNoise"
         seed="25"
         id="feTurbulence7220" />
      <feGaussianBlur
         stdDeviation="2"
         result="result7"
         id="feGaussianBlur7222" />
      <feDisplacementMap
         in="result3"
         xChannelSelector="R"
         yChannelSelector="G"
         scale="5"
         result="result4"
         in2="result7"
         id="feDisplacementMap7224" />
      <feFlood
         flood-opacity="1"
         flood-color="rgb(255,255,255)"
         id="feFlood7226" />
      <feComposite
         k3="0.7"
         k1="0.7"
         result="result2"
         operator="arithmetic"
         in2="result4"
         id="feComposite7228" />
      <feComposite
         k2="1"
         in="result2"
         operator="arithmetic"
         in2="SourceAlpha"
         k1="1"
         result="result6"
         id="feComposite7230" />
      <feBlend
         mode="multiply"
         in2="result6"
         in="result6"
         id="feBlend7232" />
    </filter>
    <clipPath
       clipPathUnits="userSpaceOnUse"
       id="clipPath4433">
      <circle
         inkscape:export-ydpi="90"
         inkscape:export-xdpi="90"
         r="29.998806"
         cy="748.57898"
         cx="207.8896"
         id="circle4435"
         style="opacity:1;fill:none;fill-opacity:1;stroke:#000000;stroke-width:3.74985075;stroke-linecap:round;stroke-linejoin:round;stroke-miterlimit:4;stroke-dasharray:none;stroke-dashoffset:0;stroke-opacity:1" />
    </clipPath>
  </defs>
  <metadata
     id="metadata7">
    <rdf:RDF>
      <cc:Work
         rdf:about="">
        <dc:format>image/svg+xml</dc:format>
        <dc:type
           rdf:resource="http://purl.org/dc/dcmitype/StillImage" />
        <dc:title />
      </cc:Work>
    </rdf:RDF>
  </metadata>
  <g
     inkscape:label="Layer 1"
     inkscape:groupmode="layer"
     id="layer1"
     transform="translate(0,-540.36216)"
     style="display:inline">
    <g
       inkscape:label="Voronoi"
       transform="translate(0,540.36216)"
       id="g4162" />
    <circle
       r="0"
       style="opacity:1;fill:#acacac;fill-opacity:1;stroke:#000000;stroke-width:3.74985075;stroke-linecap:round;stroke-linejoin:round;stroke-miterlimit:4;stroke-dasharray:none;stroke-dashoffset:0;stroke-opacity:1"
       id="path4138"
       cx="63.763329"
       cy="604.59009" />
    <circle
       r="0"
       cy="604.59009"
       cx="63.763329"
       id="circle5660"
       style="opacity:1;fill:none;fill-opacity:1;stroke:#000000;stroke-width:3.74985075;stroke-linecap:round;stroke-linejoin:round;stroke-miterlimit:4;stroke-dasharray:none;stroke-dashoffset:0;stroke-opacity:1" />
    <ellipse
       style="opacity:1;fill:#d0d0d0;fill-opacity:1;stroke:none;stroke-width:3.74985075;stroke-linecap:round;stroke-linejoin:round;stroke-miterlimit:4;stroke-dasharray:none;stroke-dashoffset:0;stroke-opacity:1"
       id="circle6157"
       cx="83.207382"
       cy="624.50305"
       rx="64.581253"
       ry="64.579094"
       inkscape:export-xdpi="90"
       inkscape:export-ydpi="90" />
    <circle
       style="opacity:1;fill:#b6b6b6;fill-opacity:1;stroke:none;stroke-width:3.74985075;stroke-linecap:round;stroke-linejoin:round;stroke-miterlimit:4;stroke-dasharray:none;stroke-dashoffset:0;stroke-opacity:1;filter:url(#filter6047)"
       id="circle5805"
       cx="223.88959"
       cy="844.57898"
       r="29.998806"
       transform="matrix(1.4159454,0,0,1.4158981,-236.21777,-570.05625)"
       inkscape:export-xdpi="90"
       inkscape:export-ydpi="90" />
    <path
       inkscape:connector-curvature="0"
       id="path6159"
       d="m 107.92465,564.98789 a 64.58125,64.579095 0 0 1 5.14654,25.09684 64.58125,64.579095 0 0 1 -64.579622,64.57747 64.58125,64.579095 0 0 1 -24.988384,-5.037 64.58125,64.579095 0 0 0 59.433089,39.48052 64.58125,64.579095 0 0 0 64.579617,-64.57736 64.58125,64.579095 0 0 0 -39.59124,-59.54047 z"
       style="opacity:1;fill:#acacac;fill-opacity:1;stroke:none;stroke-width:3.74985075;stroke-linecap:round;stroke-linejoin:round;stroke-miterlimit:4;stroke-dasharray:none;stroke-dashoffset:0;stroke-opacity:1"
       inkscape:export-xdpi="90"
       inkscape:export-ydpi="90" />
    <path
       style="opacity:1;fill:#000000;fill-opacity:1;stroke:none;stroke-width:3.74985075;stroke-linecap:round;stroke-linejoin:round;stroke-miterlimit:4;stroke-dasharray:none;stroke-dashoffset:0;stroke-opacity:1"
       d="m 116.53164,569.46989 a 64.58125,64.579095 0 0 1 9.45631,33.53118 64.58125,64.579095 0 0 1 -64.579613,64.57747 64.58125,64.579095 0 0 1 -33.599565,-9.51902 64.58125,64.579095 0 0 0 55.127505,31.0462 64.58125,64.579095 0 0 0 64.579613,-64.57736 64.58125,64.579095 0 0 0 -30.98425,-55.05847 z"
       id="path6161"
       inkscape:connector-curvature="0"
       inkscape:export-xdpi="90"
       inkscape:export-ydpi="90" />
    <ellipse
       style="opacity:1;fill:#e4e4e4;fill-opacity:1;stroke:none;stroke-width:4;stroke-linecap:round;stroke-linejoin:round;stroke-miterlimit:4;stroke-dasharray:none;stroke-dashoffset:0;stroke-opacity:1"
       id="ellipse6163"
       cx="57.303978"
       cy="598.12689"
       rx="8.3036356"
       ry="8.5339956"
       inkscape:export-xdpi="90"
       inkscape:export-ydpi="90" />
    <ellipse
       cy="624.50305"
       cx="83.20739"
       id="circle6165"
       style="opacity:1;fill:none;fill-opacity:1;stroke:#000000;stroke-width:8.07252121;stroke-linecap:round;stroke-linejoin:round;stroke-miterlimit:4;stroke-dasharray:none;stroke-dashoffset:0;stroke-opacity:1"
       rx="64.581253"
       ry="64.579094"
       inkscape:export-xdpi="90"
       inkscape:export-ydpi="90" />
    <ellipse
       style="opacity:1;fill:#d0d0d0;fill-opacity:1;stroke:none;stroke-width:3.74985075;stroke-linecap:round;stroke-linejoin:round;stroke-miterlimit:4;stroke-dasharray:none;stroke-dashoffset:0;stroke-opacity:1"
       id="circle6181"
       cx="255.43091"
       cy="624.50305"
       inkscape:export-xdpi="90"
       inkscape:export-ydpi="90"
       rx="64.581253"
       ry="64.579094" />
    <ellipse
       style="opacity:1;fill:#e4e4e4;fill-opacity:1;stroke:none;stroke-width:4;stroke-linecap:round;stroke-linejoin:round;stroke-miterlimit:4;stroke-dasharray:none;stroke-dashoffset:0;stroke-opacity:1"
       id="ellipse6187"
       cx="229.52751"
       cy="598.12689"
       rx="8.3036356"
       ry="8.5339956"
       inkscape:export-xdpi="90"
       inkscape:export-ydpi="90" />
    <ellipse
       ry="12.021448"
       rx="23.065649"
       cy="620.72491"
       cx="270.12906"
       id="ellipse5644"
       style="opacity:1;fill:#666666;fill-opacity:1;stroke:none;stroke-width:4;stroke-linecap:round;stroke-linejoin:round;stroke-miterlimit:4;stroke-dasharray:none;stroke-dashoffset:0;stroke-opacity:1"
       inkscape:export-xdpi="90"
       inkscape:export-ydpi="90" />
    <path
       style="opacity:1;fill:#666666;fill-opacity:1;stroke:none;stroke-width:4;stroke-linecap:round;stroke-linejoin:round;stroke-miterlimit:4;stroke-dasharray:none;stroke-dashoffset:0;stroke-opacity:1"
       d="m 261.42936,603.81256 a 33.496601,17.45789 0 0 0 -33.49445,17.45722 33.496601,17.45789 0 0 0 33.49445,17.45723 33.496601,17.45789 0 0 0 15.77594,-2.07283 31.410413,16.370603 0 0 1 -7.07647,0.44154 31.410413,16.370603 0 0 1 -31.40892,-16.37253 31.410413,16.370603 0 0 1 30.91278,-16.35984 33.496601,17.45789 0 0 0 -8.20333,-0.55079 z"
       id="ellipse5646"
       inkscape:connector-curvature="0"
       inkscape:export-xdpi="90"
       inkscape:export-ydpi="90" />
    <ellipse
       style="opacity:1;fill:#d0d0d0;fill-opacity:1;stroke:none;stroke-width:3.74985075;stroke-linecap:round;stroke-linejoin:round;stroke-miterlimit:4;stroke-dasharray:none;stroke-dashoffset:0;stroke-opacity:1"
       id="circle6621"
       cx="83.20739"
       cy="796.72095"
       inkscape:export-xdpi="90"
       inkscape:export-ydpi="90"
       rx="64.581253"
       ry="64.579094" />
    <ellipse
       cy="796.72095"
       cx="83.207382"
       id="circle5752"
       style="opacity:1;fill:url(#pattern4382);fill-opacity:1;stroke:none;stroke-width:3.74985075;stroke-linecap:round;stroke-linejoin:round;stroke-miterlimit:4;stroke-dasharray:none;stroke-dashoffset:0;stroke-opacity:1"
       inkscape:export-xdpi="90"
       inkscape:export-ydpi="90"
       rx="64.581253"
       ry="64.579094" />
    <ellipse
       ry="8.5339956"
       rx="8.3036356"
       cy="770.34467"
       cx="57.303978"
       id="ellipse5758"
       style="opacity:1;fill:#e4e4e4;fill-opacity:1;stroke:none;stroke-width:4;stroke-linecap:round;stroke-linejoin:round;stroke-miterlimit:4;stroke-dasharray:none;stroke-dashoffset:0;stroke-opacity:1"
       inkscape:export-xdpi="90"
       inkscape:export-ydpi="90" />
    <path
       inkscape:export-ydpi="90"
       inkscape:export-xdpi="90"
       inkscape:connector-curvature="0"
       id="path5153"
       d="m 108.43401,737.20562 a 64.58125,64.579093 0 0 1 5.14653,25.09689 64.58125,64.579093 0 0 1 -64.57962,64.57744 64.58125,64.579093 0 0 1 -24.98838,-5.03702 64.58125,64.579093 0 0 0 59.433085,39.48058 64.58125,64.579093 0 0 0 64.579625,-64.57745 64.58125,64.579093 0 0 0 -39.59124,-59.54044 z"
       style="display:inline;opacity:1;fill:#4d4d4d;fill-opacity:1;stroke:none;stroke-width:3.74985075;stroke-linecap:round;stroke-linejoin:round;stroke-miterlimit:4;stroke-dasharray:none;stroke-dashoffset:0;stroke-opacity:1;filter:url(#filter6102)" />
    <ellipse
       style="opacity:1;fill:none;fill-opacity:1;stroke:#000000;stroke-width:8.07252121;stroke-linecap:round;stroke-linejoin:round;stroke-miterlimit:4;stroke-dasharray:none;stroke-dashoffset:0;stroke-opacity:1"
       id="circle5760"
       cx="83.207382"
       cy="796.72095"
       inkscape:export-xdpi="90"
       inkscape:export-ydpi="90"
       rx="64.581253"
       ry="64.579094" />
    <ellipse
       style="opacity:1;fill:#d0d0d0;fill-opacity:1;stroke:none;stroke-width:3.74985075;stroke-linecap:round;stroke-linejoin:round;stroke-miterlimit:4;stroke-dasharray:none;stroke-dashoffset:0;stroke-opacity:1"
       id="circle6277"
       cx="427.65442"
       cy="796.72095"
       inkscape:export-xdpi="90"
       inkscape:export-ydpi="90"
       rx="64.581253"
       ry="64.579094" />
    <rect
       ry="6.3878226"
       y="769.53339"
       x="366.73294"
       height="12.775644"
       width="55.181755"
       id="rect6262"
       style="opacity:1;fill:#4d4d4d;fill-opacity:1;stroke:none;stroke-width:4;stroke-linecap:round;stroke-linejoin:round;stroke-miterlimit:4;stroke-dasharray:none;stroke-dashoffset:0;stroke-opacity:1"
       inkscape:export-xdpi="90"
       inkscape:export-ydpi="90" />
    <rect
       style="opacity:1;fill:#4d4d4d;fill-opacity:1;stroke:none;stroke-width:4;stroke-linecap:round;stroke-linejoin:round;stroke-miterlimit:4;stroke-dasharray:none;stroke-dashoffset:0;stroke-opacity:1"
       id="rect6260"
       width="55.181755"
       height="12.775644"
       x="390.31433"
       y="794.4231"
       ry="6.3878226"
       inkscape:export-xdpi="90"
       inkscape:export-ydpi="90" />
    <rect
       style="opacity:1;fill:#4d4d4d;fill-opacity:1;stroke:none;stroke-width:4;stroke-linecap:round;stroke-linejoin:round;stroke-miterlimit:4;stroke-dasharray:none;stroke-dashoffset:0;stroke-opacity:1"
       id="rect6264"
       width="55.181755"
       height="12.775644"
       x="406.42029"
       y="824.90729"
       ry="6.3878226"
       inkscape:export-xdpi="90"
       inkscape:export-ydpi="90" />
    <ellipse
       style="opacity:1;fill:#e4e4e4;fill-opacity:1;stroke:none;stroke-width:4;stroke-linecap:round;stroke-linejoin:round;stroke-miterlimit:4;stroke-dasharray:none;stroke-dashoffset:0;stroke-opacity:1"
       id="ellipse6121"
       cx="401.75104"
       cy="770.34467"
       rx="8.3036356"
       ry="8.5339956"
       inkscape:export-xdpi="90"
       inkscape:export-ydpi="90" />
    <rect
       ry="6.3878226"
       y="736.91467"
       x="395.08124"
       height="12.775644"
       width="55.181755"
       id="rect6270"
       style="opacity:1;fill:#4d4d4d;fill-opacity:1;stroke:none;stroke-width:4;stroke-linecap:round;stroke-linejoin:round;stroke-miterlimit:4;stroke-dasharray:none;stroke-dashoffset:0;stroke-opacity:1"
       inkscape:export-xdpi="90"
       inkscape:export-ydpi="90" />
    <ellipse
       cy="796.72095"
       cx="255.43091"
       id="circle6127"
       style="opacity:1;fill:#d0d0d0;fill-opacity:1;stroke:none;stroke-width:3.74985075;stroke-linecap:round;stroke-linejoin:round;stroke-miterlimit:4;stroke-dasharray:none;stroke-dashoffset:0;stroke-opacity:1"
       inkscape:export-xdpi="90"
       inkscape:export-ydpi="90"
       rx="64.581253"
       ry="64.579094" />
    <path
       inkscape:connector-curvature="0"
       inkscape:original-d="m 263.51089,763.96332 c -5.47421,1.57962 -15.15709,-16.01377 -22.60433,-13.53138 -10.30797,3.43585 -16.58614,28.55627 -3.07543,33.05969 29.65276,9.88392 42.71118,-25.59413 43.82474,-25.37143 6.11822,1.22365 20.56017,14.03783 12.30166,22.29606 -8.26102,8.26081 -22.90909,-6.30715 -31.52304,2.30651 -5.59367,5.5935 -14.60128,31.78062 -1.53772,36.13497 33.92616,11.30831 8.56418,-36.56209 5.38198,-23.83369 -4.77205,19.08764 24.76638,-6.99733 29.98535,6.9194 9.1469,24.39095 -26.39272,14.85944 -35.36733,23.8338 -0.72366,0.72355 11.54191,43.60355 -28.44762,15.37655 -6.7356,-4.75434 -25.00726,-28.81161 -15.37711,-38.44148 14.58895,-14.58851 33.40667,15.29948 33.06076,14.60779 -14.09921,-28.19752 -22.66199,-46.53868 13.37809,-53.35679"
       inkscape:path-effect="#path-effect6627;#path-effect6629"
       id="path6625"
       d="m 264.65656,763.5712 c -1.64637,-4.78375 -5.0234,-8.93858 -9.36321,-11.52648 -4.33998,-2.588 -9.59496,-3.58052 -14.57405,-2.75695 -4.1288,0.68441 -8.06677,2.6129 -11.06382,5.56151 -2.99689,2.94843 -5.0143,6.90767 -5.51344,11.10045 -0.49913,4.19253 0.54985,8.57389 3.00843,12.02764 2.4584,3.4535 6.31177,5.90959 10.51762,6.55794 4.63893,0.71598 9.3319,-0.75377 13.20018,-3.10895 3.86227,-2.35155 7.06738,-5.57789 10.07052,-8.75452 3.02973,-3.20476 5.90783,-6.39952 9.31437,-8.9707 3.39395,-2.56171 7.3365,-4.4388 11.44471,-4.62859 2.53347,-0.12034 5.09956,0.41461 7.34525,1.57527 2.24576,1.16068 4.16757,2.95205 5.43916,5.12795 1.27162,2.17594 1.886,4.73816 1.69406,7.24401 -0.19194,2.50591 -1.19778,4.95122 -2.85486,6.83228 -1.69516,1.92399 -4.0484,3.25387 -6.58002,3.9794 -2.5319,0.72559 -5.22881,0.86879 -7.92045,0.68668 -5.90362,-0.40889 -10.18921,-1.98724 -16.31277,-2.56477 -7.59385,-0.71929 -15.5611,0.84469 -21.90643,5.18444 -3.16951,2.17292 -5.89911,5.01475 -7.84775,8.34029 -1.94862,3.32551 -3.1034,7.13301 -3.21346,10.99636 -0.11006,3.86329 0.83799,7.76951 2.81276,11.10287 1.97475,3.33331 4.97965,6.06795 8.53933,7.61884 3.55962,1.55088 7.6545,1.88827 11.39761,0.8283 3.74304,-1.05995 7.0879,-3.52812 9.11214,-6.85779 2.21171,-3.63646 2.75095,-7.98783 3.11091,-12.06766 0.36346,-4.11973 0.61992,-8.21293 2.25826,-11.85175 1.45652,-3.23724 4.01278,-5.97927 7.16141,-7.62101 3.14855,-1.64169 6.8773,-2.16742 10.34969,-1.41734 3.47229,0.75006 6.66515,2.78002 8.78407,5.63385 2.11885,2.85373 3.14077,6.51631 2.76193,10.05298 -0.3886,3.62577 -2.2047,7.03325 -4.73176,9.72312 -2.52709,2.68987 -5.72858,4.698 -9.12003,6.24876 -4.70746,2.14594 -16.41411,5.3645 -21.23056,7.58178 -4.94351,2.27842 -9.4103,5.4627 -13.93226,8.39192 -4.5352,2.9378 -9.25319,5.68307 -14.44123,7.01286 -5.41637,1.38791 -11.2855,1.14031 -16.45111,-0.98303 -5.16563,-2.12336 -9.57326,-6.16579 -11.86277,-11.25509 -2.28953,-5.08934 -2.35847,-11.19528 0.0805,-16.21205 1.21586,-2.51073 3.03176,-4.73524 5.27387,-6.39843 2.24208,-1.66317 4.9095,-2.75946 7.68102,-3.11431 3.01,-0.38464 6.09555,0.10017 8.98169,1.09061 2.88627,0.99048 5.58483,2.47265 8.17709,4.10657 5.17176,3.26993 10.06505,7.2194 15.84416,9.32841 7.28653,2.66148 15.68596,2.08015 22.53097,-1.55346 6.84539,-3.63384 12.02594,-10.26126 13.90057,-17.77328 1.87472,-7.51237 0.41352,-15.78869 -3.91353,-22.20026 -4.32725,-6.41187 -11.45109,-10.85657 -19.10445,-11.92655 7.65131,1.08703 14.75705,5.54627 19.0617,11.95532 4.30484,6.40935 5.7405,14.66691 3.85632,22.14642 -1.88427,7.47985 -7.05855,14.06374 -13.87289,17.6617 -6.81467,3.59812 -15.16233,4.15396 -22.3877,1.49661 -5.744,-2.11444 -10.58492,-6.04922 -15.77714,-9.35247 -2.58975,-1.65267 -5.30176,-3.16353 -8.21393,-4.18116 -2.91232,-1.01768 -6.04854,-1.53233 -9.12756,-1.15638 -2.83678,0.34569 -5.57332,1.45029 -7.88089,3.14039 -2.30753,1.69007 -4.1829,3.95836 -5.44606,6.52684 -2.51903,5.14163 -2.46616,11.39965 -0.13402,16.62613 2.33214,5.22645 6.83402,9.37807 12.1167,11.56834 5.28276,2.1903 11.28211,2.45949 16.82001,1.05835 5.29742,-1.3399 10.09666,-4.11894 14.65196,-7.04928 4.56859,-2.93888 8.97961,-6.064 13.86984,-8.29906 8.8557,-4.05227 12.2614,-3.46123 21.24943,-7.53375 3.45522,-1.56087 6.76478,-3.60729 9.39983,-6.38652 2.63504,-2.77924 4.57255,-6.34363 5.003,-10.19365 0.42031,-3.75753 -0.64545,-7.6512 -2.88668,-10.6995 -2.24115,-3.04818 -5.62467,-5.22257 -9.32105,-6.03919 -3.69629,-0.8166 -7.66686,-0.27629 -11.033,1.45884 -3.36606,1.73509 -6.1024,4.64234 -7.67288,8.08956 -1.74709,3.83733 -2.02679,8.14223 -2.40156,12.19618 -0.37848,4.09394 -0.92605,8.18482 -2.99322,11.55176 -1.8762,3.05441 -4.97542,5.32248 -8.43513,6.28503 -3.45964,0.96254 -7.25374,0.63499 -10.54613,-0.81751 -3.29232,-1.45246 -6.07812,-4.00757 -7.90231,-7.11929 -1.82417,-3.11167 -2.69592,-6.76535 -2.57631,-10.37986 0.1196,-3.61445 1.21801,-7.18599 3.06604,-10.30686 1.848,-3.12084 4.43635,-5.79455 7.44675,-7.83812 6.01449,-4.09323 13.61621,-5.58844 20.91673,-4.88002 4.85555,0.47321 11.24905,2.25028 16.34732,2.61936 2.80932,0.20766 5.70809,0.0829 8.48246,-0.69348 2.77463,-0.77646 5.43871,-2.23602 7.40306,-4.43759 1.92282,-2.15477 3.09069,-4.94921 3.32914,-7.8209 0.23846,-2.87173 -0.44578,-5.79739 -1.88025,-8.28844 -1.43449,-2.4911 -3.60367,-4.53579 -6.14203,-5.86833 -2.53839,-1.33257 -5.43048,-1.95232 -8.28656,-1.83494 -4.62529,0.1954 -8.94292,2.27726 -12.53716,4.96801 -3.58164,2.68131 -6.60728,6.01642 -9.59555,9.15255 -3.01502,3.16419 -6.0681,6.19487 -9.68145,8.37542 -3.60736,2.17691 -7.80705,3.41745 -11.80555,2.78412 -3.61679,-0.57371 -6.95791,-2.71608 -9.07806,-5.72208 -2.11995,-3.00572 -3.02728,-6.84211 -2.57442,-10.50973 0.45281,-3.66733 2.24212,-7.15465 4.90056,-9.74742 2.65826,-2.59261 6.16675,-4.29827 9.85157,-4.89261 4.44135,-0.71816 9.13165,0.1874 12.98208,2.50238 3.8506,2.31506 6.84457,6.02925 8.28932,10.27695 z"
       style="fill:#000000;fill-rule:evenodd;stroke:none;stroke-width:1px;stroke-linecap:butt;stroke-linejoin:miter;stroke-opacity:1"
       inkscape:export-xdpi="90"
       inkscape:export-ydpi="90" />
    <ellipse
       ry="8.5339956"
       rx="8.3036356"
       cy="770.34467"
       cx="229.52751"
       id="ellipse6133"
       style="opacity:1;fill:#e4e4e4;fill-opacity:1;stroke:none;stroke-width:4;stroke-linecap:round;stroke-linejoin:round;stroke-miterlimit:4;stroke-dasharray:none;stroke-dashoffset:0;stroke-opacity:1"
       inkscape:export-xdpi="90"
       inkscape:export-ydpi="90" />
    <circle
       style="opacity:1;fill:#b6b6b6;fill-opacity:1;stroke:none;stroke-width:3.74985075;stroke-linecap:round;stroke-linejoin:round;stroke-miterlimit:4;stroke-dasharray:none;stroke-dashoffset:0;stroke-opacity:1;filter:url(#filter5863)"
       id="circle5788"
       cx="127.88959"
       cy="492.53726"
       r="29.998806"
       inkscape:export-xdpi="90"
       inkscape:export-ydpi="90"
       transform="matrix(2.152794,0,0,2.1527221,-19.889071,-91.35722)" />
    <ellipse
       style="opacity:0.378;fill:#b6b6b6;fill-opacity:1;stroke:none;stroke-width:3.74985075;stroke-linecap:round;stroke-linejoin:round;stroke-miterlimit:4;stroke-dasharray:none;stroke-dashoffset:0;stroke-opacity:1"
       id="circle5983"
       cx="255.43091"
       cy="968.93872"
       inkscape:export-xdpi="90"
       inkscape:export-ydpi="90"
       rx="64.581253"
       ry="64.579094" />
    <ellipse
       style="opacity:0.356;fill:#aaaaaa;fill-opacity:1;stroke:none;stroke-width:4;stroke-linecap:round;stroke-linejoin:round;stroke-miterlimit:4;stroke-dasharray:none;stroke-dashoffset:0;stroke-opacity:1"
       id="ellipse5989"
       cx="229.52751"
       cy="942.5625"
       rx="8.3036356"
       ry="8.5339956"
       inkscape:export-xdpi="90"
       inkscape:export-ydpi="90" />
    <ellipse
       style="opacity:1;fill:#cccccc;fill-opacity:1;stroke:#000000;stroke-width:8.07252121;stroke-linecap:round;stroke-linejoin:round;stroke-miterlimit:4;stroke-dasharray:none;stroke-dashoffset:0;stroke-opacity:1"
       id="circle7076"
       cx="83.207382"
       cy="968.93872"
       inkscape:export-xdpi="90"
       inkscape:export-ydpi="90"
       rx="64.581253"
       ry="64.579094" />
    <path
       inkscape:connector-curvature="0"
       id="path6648"
       d="m 37.50556,947.77092 c 0.306256,-4.82721 1.173143,-9.59952 2.718311,-14.40661 1.303904,-4.0564 3.281784,-7.47815 4.892956,-11.41648 0.498738,-1.21912 7.412931,-13.1723 10.3296,-7.33919 3.342579,6.68495 -11.514434,19.20184 -4.892977,25.82308 2.758504,2.75849 6.886056,-16.62624 13.319745,-19.84305 2.337289,-1.16854 7.611269,22.25601 7.611269,26.36678 0,1.30394 3.569805,4.54906 3.533811,4.62096 -3.064868,6.12955 -21.405791,0.4748 -26.095803,5.16467 -1.80712,1.80705 1.166534,2.79744 1.902812,3.5337 4.834056,4.83388 -2.245085,15.02069 -5.436624,18.2121 -0.454024,0.45402 -3.123962,-11.00391 -3.533811,-11.96017 -3.2203,-7.51379 -12.239064,-13.49609 -4.349289,-18.75579 z"
       style="display:inline;opacity:0.49000005;fill:#b3b3b3;fill-rule:evenodd;stroke:none;stroke-width:1px;stroke-linecap:butt;stroke-linejoin:miter;stroke-opacity:1;filter:url(#filter6102)"
       inkscape:export-xdpi="90"
       inkscape:export-ydpi="90" />
    <path
       inkscape:connector-curvature="0"
       id="path5790"
       d="m 107.92465,909.42341 a 64.58125,64.579095 0 0 1 5.14654,25.09696 64.58125,64.579095 0 0 1 -64.579622,64.57736 64.58125,64.579095 0 0 1 -24.988384,-5.037 64.58125,64.579095 0 0 0 59.433089,39.48067 64.58125,64.579095 0 0 0 64.579617,-64.57752 64.58125,64.579095 0 0 0 -39.59124,-59.54047 z"
       style="opacity:1;fill:#acacac;fill-opacity:1;stroke:none;stroke-width:3.74985075;stroke-linecap:round;stroke-linejoin:round;stroke-miterlimit:4;stroke-dasharray:none;stroke-dashoffset:0;stroke-opacity:1"
       inkscape:export-xdpi="90"
       inkscape:export-ydpi="90" />
    <path
       inkscape:connector-curvature="0"
       id="path6650"
       d="m 46.20416,989.90336 c 3.781146,-1.97918 12.816121,-9.03398 17.397203,-5.98003 13.880009,9.25303 -6.790236,14.96687 -2.990146,26.36677 2.058696,6.1759 9.998178,8.2291 4.621124,14.9502 -0.515078,0.6438 -1.310815,2.1987 -2.446479,1.631 -4.114613,-2.0574 -4.409761,-14.8497 -7.339435,-18.7558 -2.994514,-3.9925 -23.252112,-13.2775 -9.785933,-17.12487"
       style="display:inline;opacity:0.49000005;fill:#b3b3b3;fill-rule:evenodd;stroke:none;stroke-width:1px;stroke-linecap:butt;stroke-linejoin:miter;stroke-opacity:1;filter:url(#filter6102)"
       inkscape:export-xdpi="90"
       inkscape:export-ydpi="90" />
    <path
       inkscape:connector-curvature="0"
       id="path6652"
       d="m 117.88974,962.17753 c -11.11166,-4.20398 -14.4556,-9.11558 -23.571456,0 -8.729747,8.72947 17.382736,22.26042 18.484536,24.46403 3.04147,6.08272 -3.71895,15.03684 1.35914,20.11484 1.57468,1.5745 10.5285,6.3248 12.23241,4.621 9.07604,-9.0758 7.23098,-50.01536 -8.50463,-50.01536"
       style="display:inline;opacity:0.49000005;fill:#b3b3b3;fill-rule:evenodd;stroke:none;stroke-width:1px;stroke-linecap:butt;stroke-linejoin:miter;stroke-opacity:1;filter:url(#filter6102)"
       inkscape:export-xdpi="90"
       inkscape:export-ydpi="90" />
    <circle
       r="29.998806"
       cy="332.53726"
       cx="207.88959"
       id="circle6169"
       style="opacity:1;fill:#d0d0d0;fill-opacity:1;stroke:none;stroke-width:3.74985075;stroke-linecap:round;stroke-linejoin:round;stroke-miterlimit:4;stroke-dasharray:none;stroke-dashoffset:0;stroke-opacity:1;filter:url(#filter7060)"
       inkscape:export-xdpi="90"
       inkscape:export-ydpi="90"
       transform="matrix(2.152794,0,0,2.1527221,-19.889071,-91.35722)" />
    <ellipse
       style="opacity:1;fill:none;fill-opacity:1;stroke:#000000;stroke-width:8.07252121;stroke-linecap:round;stroke-linejoin:round;stroke-miterlimit:4;stroke-dasharray:none;stroke-dashoffset:0;stroke-opacity:1"
       id="circle6177"
       cx="427.65442"
       cy="624.50305"
       inkscape:export-xdpi="90"
       inkscape:export-ydpi="90"
       rx="64.581253"
       ry="64.579094" />
    <circle
       r="29.998806"
       cy="748.57898"
       cx="207.8896"
       id="circle7081"
       style="opacity:1;fill:#d0d0d0;fill-opacity:1;stroke:none;stroke-width:3.74985075;stroke-linecap:round;stroke-linejoin:round;stroke-miterlimit:4;stroke-dasharray:none;stroke-dashoffset:0;stroke-opacity:1;filter:url(#filter7210)"
       inkscape:export-xdpi="90"
       inkscape:export-ydpi="90"
       clip-path="url(#clipPath4433)"
       transform="matrix(2.152794,0,0,2.1527221,-19.889071,-642.54387)" />
    <rect
       style="opacity:1;fill:none;fill-opacity:1;stroke:none;stroke-width:4;stroke-linecap:round;stroke-linejoin:round;stroke-miterlimit:4;stroke-dasharray:none;stroke-dashoffset:0;stroke-opacity:1"
       id="rect7287"
       width="512"
       height="512"
       x="0.033176254"
       y="540.36218"
       inkscape:export-xdpi="90"
       inkscape:export-ydpi="90" />
    <path
       sodipodi:nodetypes="cssssc"
       inkscape:connector-curvature="0"
       id="path6654"
       d="m 134.00567,950.21736 c -5.32598,-3.9577 -11.73562,-5.25756 -17.94087,-7.06742 -7.77463,-2.26753 -16.466253,-4.3637 -17.125369,-13.59112 -1.173706,-16.4313 8.874929,-8.97015 20.387359,-8.97015 3.4622,0 13.58403,3.51121 14.67888,6.79561 4.86872,14.60563 11.97797,21.97755 -3.80564,23.10487"
       style="display:inline;opacity:0.49000005;fill:#b3b3b3;fill-rule:evenodd;stroke:none;stroke-width:1px;stroke-linecap:butt;stroke-linejoin:miter;stroke-opacity:1;filter:url(#filter6102)"
       inkscape:export-xdpi="90"
       inkscape:export-ydpi="90" />
    <path
       style="opacity:1;fill:#000000;fill-opacity:1;stroke:none;stroke-width:3.74985075;stroke-linecap:round;stroke-linejoin:round;stroke-miterlimit:4;stroke-dasharray:none;stroke-dashoffset:0;stroke-opacity:1"
       d="m 116.53164,913.90543 a 64.58125,64.579095 0 0 1 9.45631,33.53127 64.58125,64.579095 0 0 1 -64.579613,64.5773 64.58125,64.579095 0 0 1 -33.599565,-9.519 64.58125,64.579095 0 0 0 55.127505,31.0464 64.58125,64.579095 0 0 0 64.579613,-64.57752 64.58125,64.579095 0 0 0 -30.98425,-55.05845 z"
       id="path5792"
       inkscape:connector-curvature="0"
       inkscape:export-xdpi="90"
       inkscape:export-ydpi="90" />
    <ellipse
       cy="968.93872"
       cx="83.207382"
       id="circle5796"
       style="display:inline;opacity:1;fill:none;fill-opacity:1;stroke:#000000;stroke-width:8.07252121;stroke-linecap:round;stroke-linejoin:round;stroke-miterlimit:4;stroke-dasharray:none;stroke-dashoffset:0;stroke-opacity:1"
       inkscape:export-xdpi="90"
       inkscape:export-ydpi="90"
       rx="64.581253"
       ry="64.579094" />
    <ellipse
       ry="8.5339956"
       rx="8.3036356"
       cy="598.12689"
       cx="401.75104"
       id="ellipse6175"
       style="display:inline;opacity:1;fill:#e4e4e4;fill-opacity:1;stroke:none;stroke-width:4;stroke-linecap:round;stroke-linejoin:round;stroke-miterlimit:4;stroke-dasharray:none;stroke-dashoffset:0;stroke-opacity:1;filter:url(#filter6098)"
       inkscape:export-xdpi="90"
       inkscape:export-ydpi="90" />
    <ellipse
       style="display:inline;opacity:1;fill:#e4e4e4;fill-opacity:1;stroke:none;stroke-width:4;stroke-linecap:round;stroke-linejoin:round;stroke-miterlimit:4;stroke-dasharray:none;stroke-dashoffset:0;stroke-opacity:1;filter:url(#filter6098)"
       id="ellipse6236"
       cx="229.52751"
       cy="942.5625"
       rx="8.3036356"
       ry="8.5339956"
       inkscape:export-xdpi="90"
       inkscape:export-ydpi="90" />
    <ellipse
       ry="8.5339956"
       rx="8.3036356"
       cy="942.5625"
       cx="401.75104"
       id="ellipse6244"
       style="display:inline;opacity:1;fill:#e4e4e4;fill-opacity:1;stroke:none;stroke-width:4;stroke-linecap:round;stroke-linejoin:round;stroke-miterlimit:4;stroke-dasharray:none;stroke-dashoffset:0;stroke-opacity:1;filter:url(#filter6098)"
       inkscape:export-xdpi="90"
       inkscape:export-ydpi="90" />
    <ellipse
       style="display:inline;opacity:1;fill:#e4e4e4;fill-opacity:1;stroke:none;stroke-width:4;stroke-linecap:round;stroke-linejoin:round;stroke-miterlimit:4;stroke-dasharray:none;stroke-dashoffset:0;stroke-opacity:1;filter:url(#filter6098)"
       id="ellipse5794"
       cx="57.303978"
       cy="942.5625"
       rx="8.3036356"
       ry="8.5339956"
       inkscape:export-xdpi="90"
       inkscape:export-ydpi="90" />
    <path
       style="display:inline;opacity:1;fill:#4d4d4d;fill-opacity:1;stroke:none;stroke-width:3.74985075;stroke-linecap:round;stroke-linejoin:round;stroke-miterlimit:4;stroke-dasharray:none;stroke-dashoffset:0;stroke-opacity:1;filter:url(#filter6102)"
       d="m 288.75515,913.90542 a 64.58125,64.579093 0 0 1 9.45632,33.53119 64.58125,64.579093 0 0 1 -64.57962,64.57749 64.58125,64.579093 0 0 1 -33.59956,-9.5191 64.58125,64.579093 0 0 0 55.1275,31.0463 64.58125,64.579093 0 0 0 64.57962,-64.57747 64.58125,64.579093 0 0 0 -30.98426,-55.05841 z"
       id="path5987"
       inkscape:connector-curvature="0"
       inkscape:export-xdpi="90"
       inkscape:export-ydpi="90" />
    <path
       inkscape:connector-curvature="0"
       id="path6117"
       d="m 452.3717,737.20562 a 64.58125,64.579093 0 0 1 5.14653,25.09689 64.58125,64.579093 0 0 1 -64.57962,64.57744 64.58125,64.579093 0 0 1 -24.98839,-5.03702 64.58125,64.579093 0 0 0 59.43309,39.48058 64.58125,64.579093 0 0 0 64.57962,-64.57745 64.58125,64.579093 0 0 0 -39.59123,-59.54044 z"
       style="display:inline;opacity:1;fill:#4d4d4d;fill-opacity:1;stroke:none;stroke-width:3.74985075;stroke-linecap:round;stroke-linejoin:round;stroke-miterlimit:4;stroke-dasharray:none;stroke-dashoffset:0;stroke-opacity:1;filter:url(#filter6102)"
       inkscape:export-xdpi="90"
       inkscape:export-ydpi="90" />
    <path
       style="display:inline;opacity:1;fill:#4d4d4d;fill-opacity:1;stroke:none;stroke-width:3.74985075;stroke-linecap:round;stroke-linejoin:round;stroke-miterlimit:4;stroke-dasharray:none;stroke-dashoffset:0;stroke-opacity:1;filter:url(#filter6102)"
       d="m 280.14818,737.20562 a 64.58125,64.579093 0 0 1 5.14653,25.09689 64.58125,64.579093 0 0 1 -64.57962,64.57744 64.58125,64.579093 0 0 1 -24.98839,-5.03702 64.58125,64.579093 0 0 0 59.43309,39.48058 64.58125,64.579093 0 0 0 64.57962,-64.57745 64.58125,64.579093 0 0 0 -39.59123,-59.54044 z"
       id="path6129"
       inkscape:connector-curvature="0"
       inkscape:export-xdpi="90"
       inkscape:export-ydpi="90" />
    <path
       inkscape:connector-curvature="0"
       id="path5985"
       d="m 280.14818,909.42339 a 64.58125,64.579093 0 0 1 5.14653,25.09689 64.58125,64.579093 0 0 1 -64.57962,64.57744 64.58125,64.579093 0 0 1 -24.98839,-5.03702 64.58125,64.579093 0 0 0 59.43309,39.4806 64.58125,64.579093 0 0 0 64.57962,-64.57747 64.58125,64.579093 0 0 0 -39.59123,-59.54044 z"
       style="display:inline;opacity:1;fill:#4d4d4d;fill-opacity:1;stroke:none;stroke-width:3.74985075;stroke-linecap:round;stroke-linejoin:round;stroke-miterlimit:4;stroke-dasharray:none;stroke-dashoffset:0;stroke-opacity:1;filter:url(#filter6102)"
       inkscape:export-xdpi="90"
       inkscape:export-ydpi="90" />
    <path
       style="display:inline;opacity:1;fill:#4d4d4d;fill-opacity:1;stroke:none;stroke-width:3.74985075;stroke-linecap:round;stroke-linejoin:round;stroke-miterlimit:4;stroke-dasharray:none;stroke-dashoffset:0;stroke-opacity:1;filter:url(#filter6102)"
       d="m 452.3717,564.98785 a 64.58125,64.579093 0 0 1 5.14653,25.09689 64.58125,64.579093 0 0 1 -64.57962,64.57744 64.58125,64.579093 0 0 1 -24.98839,-5.03702 64.58125,64.579093 0 0 0 59.43309,39.48058 64.58125,64.579093 0 0 0 64.57962,-64.57745 64.58125,64.579093 0 0 0 -39.59123,-59.54044 z"
       id="path7072"
       inkscape:connector-curvature="0"
       inkscape:export-xdpi="90"
       inkscape:export-ydpi="90" />
    <path
       style="display:inline;opacity:1;fill:#4d4d4d;fill-opacity:1;stroke:none;stroke-width:3.74985075;stroke-linecap:round;stroke-linejoin:round;stroke-miterlimit:4;stroke-dasharray:none;stroke-dashoffset:0;stroke-opacity:1;filter:url(#filter6102)"
       d="m 280.14818,564.98785 a 64.58125,64.579093 0 0 1 5.14653,25.09689 64.58125,64.579093 0 0 1 -64.57962,64.57744 64.58125,64.579093 0 0 1 -24.98839,-5.03702 64.58125,64.579093 0 0 0 59.43309,39.48058 64.58125,64.579093 0 0 0 64.57962,-64.57745 64.58125,64.579093 0 0 0 -39.59123,-59.54044 z"
       id="path6183"
       inkscape:connector-curvature="0"
       inkscape:export-xdpi="90"
       inkscape:export-ydpi="90" />
    <path
       style="opacity:1;fill:#000000;fill-opacity:1;stroke:none;stroke-width:3.74985075;stroke-linecap:round;stroke-linejoin:round;stroke-miterlimit:4;stroke-dasharray:none;stroke-dashoffset:0;stroke-opacity:1"
       d="m 460.97867,569.46989 a 64.58125,64.579093 0 0 1 9.45632,33.53118 64.58125,64.579093 0 0 1 -64.57962,64.57745 64.58125,64.579093 0 0 1 -33.59956,-9.51906 64.58125,64.579093 0 0 0 55.1275,31.04628 64.58125,64.579093 0 0 0 64.57962,-64.57745 64.58125,64.579093 0 0 0 -30.98426,-55.0584 z"
       id="path6185"
       inkscape:connector-curvature="0"
       inkscape:export-xdpi="90"
       inkscape:export-ydpi="90" />
    <path
       style="opacity:1;fill:#000000;fill-opacity:1;stroke:none;stroke-width:3.74985075;stroke-linecap:round;stroke-linejoin:round;stroke-miterlimit:4;stroke-dasharray:none;stroke-dashoffset:0;stroke-opacity:1"
       d="m 288.75515,741.68765 a 64.58125,64.579093 0 0 1 9.45632,33.53119 64.58125,64.579093 0 0 1 -64.57962,64.57745 64.58125,64.579093 0 0 1 -33.59956,-9.51906 64.58125,64.579093 0 0 0 55.1275,31.04628 64.58125,64.579093 0 0 0 64.57962,-64.57745 64.58125,64.579093 0 0 0 -30.98426,-55.05841 z"
       id="path6119"
       inkscape:connector-curvature="0"
       inkscape:export-xdpi="90"
       inkscape:export-ydpi="90" />
    <path
       inkscape:connector-curvature="0"
       id="path6131"
       d="m 460.97867,741.68765 a 64.58125,64.579093 0 0 1 9.45632,33.53119 64.58125,64.579093 0 0 1 -64.57962,64.57745 64.58125,64.579093 0 0 1 -33.59956,-9.51906 64.58125,64.579093 0 0 0 55.1275,31.04628 64.58125,64.579093 0 0 0 64.57962,-64.57745 64.58125,64.579093 0 0 0 -30.98426,-55.05841 z"
       style="opacity:1;fill:#000000;fill-opacity:1;stroke:none;stroke-width:3.74985075;stroke-linecap:round;stroke-linejoin:round;stroke-miterlimit:4;stroke-dasharray:none;stroke-dashoffset:0;stroke-opacity:1"
       inkscape:export-xdpi="90"
       inkscape:export-ydpi="90" />
    <path
       style="opacity:1;fill:#000000;fill-opacity:1;stroke:none;stroke-width:3.74985075;stroke-linecap:round;stroke-linejoin:round;stroke-miterlimit:4;stroke-dasharray:none;stroke-dashoffset:0;stroke-opacity:1"
       d="m 288.75515,913.90542 a 64.58125,64.579093 0 0 1 9.45632,33.53119 64.58125,64.579093 0 0 1 -64.57962,64.57749 64.58125,64.579093 0 0 1 -33.59956,-9.5191 64.58125,64.579093 0 0 0 55.1275,31.0463 64.58125,64.579093 0 0 0 64.57962,-64.57747 64.58125,64.579093 0 0 0 -30.98426,-55.05841 z"
       id="path6252"
       inkscape:connector-curvature="0"
       inkscape:export-xdpi="90"
       inkscape:export-ydpi="90" />
    <path
       inkscape:connector-curvature="0"
       id="path7074"
       d="m 288.75515,569.46989 a 64.58125,64.579093 0 0 1 9.45632,33.53118 64.58125,64.579093 0 0 1 -64.57962,64.57745 64.58125,64.579093 0 0 1 -33.59956,-9.51906 64.58125,64.579093 0 0 0 55.1275,31.04628 64.58125,64.579093 0 0 0 64.57962,-64.57745 64.58125,64.579093 0 0 0 -30.98426,-55.0584 z"
       style="opacity:1;fill:#000000;fill-opacity:1;stroke:none;stroke-width:3.74985075;stroke-linecap:round;stroke-linejoin:round;stroke-miterlimit:4;stroke-dasharray:none;stroke-dashoffset:0;stroke-opacity:1"
       inkscape:export-xdpi="90"
       inkscape:export-ydpi="90" />
    <path
       inkscape:export-ydpi="90"
       inkscape:export-xdpi="90"
       style="display:inline;opacity:1;fill:#4d4d4d;fill-opacity:1;stroke:none;stroke-width:3.74985075;stroke-linecap:round;stroke-linejoin:round;stroke-miterlimit:4;stroke-dasharray:none;stroke-dashoffset:0;stroke-opacity:1;filter:url(#filter6102)"
       d="m 452.3717,909.42339 a 64.58125,64.579093 0 0 1 5.14653,25.09689 64.58125,64.579093 0 0 1 -64.57962,64.57744 64.58125,64.579093 0 0 1 -24.98839,-5.03702 64.58125,64.579093 0 0 0 59.43309,39.4806 64.58125,64.579093 0 0 0 64.57962,-64.57747 64.58125,64.579093 0 0 0 -39.59123,-59.54044 z"
       id="path4405"
       inkscape:connector-curvature="0" />
    <path
       inkscape:export-ydpi="90"
       inkscape:export-xdpi="90"
       style="opacity:1;fill:#000000;fill-opacity:1;stroke:none;stroke-width:3.74985075;stroke-linecap:round;stroke-linejoin:round;stroke-miterlimit:4;stroke-dasharray:none;stroke-dashoffset:0;stroke-opacity:1"
       d="m 460.97867,913.90542 a 64.58125,64.579093 0 0 1 9.45632,33.53119 64.58125,64.579093 0 0 1 -64.57962,64.57749 64.58125,64.579093 0 0 1 -33.59956,-9.5191 64.58125,64.579093 0 0 0 55.1275,31.0463 64.58125,64.579093 0 0 0 64.57962,-64.57747 64.58125,64.579093 0 0 0 -30.98426,-55.05841 z"
       id="path4373"
       inkscape:connector-curvature="0" />
    <ellipse
       cy="968.93872"
       cx="255.43091"
       id="circle5991"
       style="opacity:1;fill:none;fill-opacity:1;stroke:#000000;stroke-width:8.07252121;stroke-linecap:round;stroke-linejoin:round;stroke-miterlimit:4;stroke-dasharray:none;stroke-dashoffset:0;stroke-opacity:1"
       inkscape:export-xdpi="90"
       inkscape:export-ydpi="90"
       rx="64.581253"
       ry="64.579094" />
    <ellipse
       style="opacity:1;fill:none;fill-opacity:1;stroke:#000000;stroke-width:8.07252121;stroke-linecap:round;stroke-linejoin:round;stroke-miterlimit:4;stroke-dasharray:none;stroke-dashoffset:0;stroke-opacity:1"
       id="circle6135"
       cx="255.43091"
       cy="796.72095"
       inkscape:export-xdpi="90"
       inkscape:export-ydpi="90"
       rx="64.581253"
       ry="64.579094" />
    <ellipse
       cy="624.50305"
       cx="255.43091"
       id="circle6189"
       style="opacity:1;fill:none;fill-opacity:1;stroke:#000000;stroke-width:8.07252121;stroke-linecap:round;stroke-linejoin:round;stroke-miterlimit:4;stroke-dasharray:none;stroke-dashoffset:0;stroke-opacity:1"
       inkscape:export-xdpi="90"
       inkscape:export-ydpi="90"
       rx="64.581253"
       ry="64.579094" />
    <path
       id="circle4144"
       d="m 492.03434,623.71148 a 64.58125,64.579095 0 0 1 -64.58126,64.57909 64.58125,64.579095 0 0 1 -64.58124,-64.57909 64.58125,64.579095 0 0 1 64.58124,-64.57908 64.58125,64.579095 0 0 1 64.58126,64.57908 z"
       style="opacity:1;fill:none;fill-opacity:1;stroke:#000000;stroke-width:8.07252121;stroke-linecap:round;stroke-linejoin:round;stroke-miterlimit:4;stroke-dasharray:none;stroke-dashoffset:0;stroke-opacity:1"
       inkscape:connector-curvature="0"
       inkscape:export-xdpi="90"
       inkscape:export-ydpi="90" />
    <ellipse
       cy="796.72095"
       cx="427.65439"
       id="circle6123"
       style="opacity:1;fill:none;fill-opacity:1;stroke:#000000;stroke-width:8.07252121;stroke-linecap:round;stroke-linejoin:round;stroke-miterlimit:4;stroke-dasharray:none;stroke-dashoffset:0;stroke-opacity:1"
       inkscape:export-xdpi="90"
       inkscape:export-ydpi="90"
       rx="64.581253"
       ry="64.579094" />
    <ellipse
       style="opacity:1;fill:none;fill-opacity:1;stroke:#000000;stroke-width:8.07252121;stroke-linecap:round;stroke-linejoin:round;stroke-miterlimit:4;stroke-dasharray:none;stroke-dashoffset:0;stroke-opacity:1"
       id="circle6246"
       cx="427.65442"
       cy="968.93872"
       inkscape:export-xdpi="90"
       inkscape:export-ydpi="90"
       rx="64.581253"
       ry="64.579094" />
    <path
       inkscape:connector-curvature="0"
       id="path5756"
       d="m 116.53164,741.68772 a 64.58125,64.579095 0 0 1 9.45631,33.53116 64.58125,64.579095 0 0 1 -64.579613,64.57747 64.58125,64.579095 0 0 1 -33.599565,-9.51912 64.58125,64.579095 0 0 0 55.127505,31.04631 64.58125,64.579095 0 0 0 64.579613,-64.57747 64.58125,64.579095 0 0 0 -30.98425,-55.05835 z"
       style="opacity:1;fill:#000000;fill-opacity:1;stroke:none;stroke-width:3.74985075;stroke-linecap:round;stroke-linejoin:round;stroke-miterlimit:4;stroke-dasharray:none;stroke-dashoffset:0;stroke-opacity:1"
       inkscape:export-xdpi="90"
       inkscape:export-ydpi="90" />
    <rect
       style="opacity:1;fill:none;fill-opacity:1;stroke:#000000;stroke-width:0;stroke-linecap:round;stroke-linejoin:round;stroke-miterlimit:4;stroke-dasharray:none;stroke-dashoffset:0;stroke-opacity:1"
       id="rect6454"
       width="287.71545"
       height="96"
       x="0.28571427"
       y="283.64789"
       ry="0"
       inkscape:export-xdpi="90"
       inkscape:export-ydpi="90" />
    <g
       id="g7266"
       transform="matrix(0,1,-1,0,660.26668,-5.318854)"
       style="fill:#ffffff"
       inkscape:export-xdpi="90"
       inkscape:export-ydpi="90">
      <rect
         ry="7.9999967"
         y="588.36218"
         x="304"
         height="63.999985"
         width="15.999993"
         id="rect7234"
         style="opacity:1;fill:#ffffff;fill-opacity:1;stroke:#000000;stroke-width:4;stroke-linecap:round;stroke-linejoin:round;stroke-miterlimit:4;stroke-dasharray:none;stroke-dashoffset:0;stroke-opacity:1" />
      <rect
         style="opacity:1;fill:#ffffff;fill-opacity:1;stroke:#000000;stroke-width:4;stroke-linecap:round;stroke-linejoin:round;stroke-miterlimit:4;stroke-dasharray:none;stroke-dashoffset:0;stroke-opacity:1"
         id="rect7236"
         width="15.999993"
         height="63.999985"
         x="352"
         y="588.36218"
         ry="7.9999967" />
      <circle
         r="16"
         cy="636.36218"
         cx="336"
         id="path7238"
         style="opacity:1;fill:#ffffff;fill-opacity:1;stroke:#000000;stroke-width:4;stroke-linecap:round;stroke-linejoin:round;stroke-miterlimit:4;stroke-dasharray:none;stroke-dashoffset:0;stroke-opacity:1" />
      <rect
         ry="1.3889598"
         y="572.36218"
         x="310.62192"
         height="35.785408"
         width="2.7779195"
         id="rect7240"
         style="opacity:1;fill:#ffffff;fill-opacity:1;stroke:#000000;stroke-width:4;stroke-linecap:round;stroke-linejoin:round;stroke-miterlimit:4;stroke-dasharray:none;stroke-dashoffset:0;stroke-opacity:1" />
      <rect
         style="opacity:1;fill:#ffffff;fill-opacity:1;stroke:#000000;stroke-width:4;stroke-linecap:round;stroke-linejoin:round;stroke-miterlimit:4;stroke-dasharray:none;stroke-dashoffset:0;stroke-opacity:1"
         id="rect7242"
         width="2.7779195"
         height="35.785408"
         x="358.62192"
         y="572.36218"
         ry="1.3889598" />
    </g>
    <g
       id="g7273"
       transform="matrix(0,1,-1,0,864.09303,-4.8767526)"
       style="fill:#ffffff"
       inkscape:export-xdpi="90"
       inkscape:export-ydpi="90">
      <rect
         ry="15.286874"
         y="685.11108"
         x="320.6774"
         height="64.788033"
         width="30.573748"
         id="rect7244"
         style="opacity:1;fill:#ffffff;fill-opacity:1;stroke:#000000;stroke-width:3.21196723;stroke-linecap:round;stroke-linejoin:round;stroke-miterlimit:4;stroke-dasharray:none;stroke-dashoffset:0;stroke-opacity:1" />
      <path
         sodipodi:nodetypes="ccccc"
         inkscape:connector-curvature="0"
         id="rect7246"
         d="m 328.92857,748.36218 12.71429,0 10.35714,16 -32,0 z"
         style="opacity:1;fill:#ffffff;fill-opacity:1;stroke:#000000;stroke-width:4;stroke-linecap:round;stroke-linejoin:round;stroke-miterlimit:4;stroke-dasharray:none;stroke-dashoffset:0;stroke-opacity:1" />
      <path
         sodipodi:nodetypes="ccccc"
         inkscape:connector-curvature="0"
         id="rect7249"
         d="m 296.5,720.21928 23.5,-12.14286 0,19.64285 -16,0 z"
         style="opacity:1;fill:#ffffff;fill-opacity:1;stroke:#000000;stroke-width:4;stroke-linecap:round;stroke-linejoin:round;stroke-miterlimit:4;stroke-dasharray:none;stroke-dashoffset:0;stroke-opacity:1" />
      <path
         style="opacity:1;fill:#ffffff;fill-opacity:1;stroke:#000000;stroke-width:4;stroke-linecap:round;stroke-linejoin:round;stroke-miterlimit:4;stroke-dasharray:none;stroke-dashoffset:0;stroke-opacity:1"
         d="m 376.50019,720.21928 -23.5,-12.14286 0,19.64285 16,0 z"
         id="path7252"
         inkscape:connector-curvature="0"
         sodipodi:nodetypes="ccccc" />
      <rect
         y="677.005"
         x="333.85715"
         height="27.285721"
         width="4.0000072"
         id="rect7254"
         style="opacity:1;fill:#ffffff;fill-opacity:1;stroke:#000000;stroke-width:4;stroke-linecap:round;stroke-linejoin:round;stroke-miterlimit:4;stroke-dasharray:none;stroke-dashoffset:0;stroke-opacity:1" />
    </g>
    <g
       id="g7280"
       transform="matrix(0,1,-1,0,1058.9579,-2.0273093)"
       style="fill:#ffffff"
       inkscape:export-xdpi="90"
       inkscape:export-ydpi="90">
      <rect
         transform="scale(-1,-1)"
         y="-847.36218"
         x="-359.78571"
         height="48"
         width="48"
         id="rect7256"
         style="opacity:1;fill:#ffffff;fill-opacity:1;stroke:#000000;stroke-width:4;stroke-linecap:round;stroke-linejoin:round;stroke-miterlimit:4;stroke-dasharray:none;stroke-dashoffset:0;stroke-opacity:1" />
      <rect
         transform="scale(-1,-1)"
         y="-831.36218"
         x="-375.78571"
         height="16"
         width="16"
         id="rect7258"
         style="opacity:1;fill:#ffffff;fill-opacity:1;stroke:#000000;stroke-width:4;stroke-linecap:round;stroke-linejoin:round;stroke-miterlimit:4;stroke-dasharray:none;stroke-dashoffset:0;stroke-opacity:1" />
      <rect
         transform="scale(-1,-1)"
         y="-831.36218"
         x="-311.78571"
         height="16"
         width="16"
         id="rect7260"
         style="opacity:1;fill:#ffffff;fill-opacity:1;stroke:#000000;stroke-width:4;stroke-linecap:round;stroke-linejoin:round;stroke-miterlimit:4;stroke-dasharray:none;stroke-dashoffset:0;stroke-opacity:1" />
      <rect
         transform="scale(-1,-1)"
         y="-847.36218"
         x="-343.78571"
         height="32"
         width="16"
         id="rect7262"
         style="opacity:1;fill:#ffffff;fill-opacity:1;stroke:#000000;stroke-width:4;stroke-linecap:round;stroke-linejoin:round;stroke-miterlimit:4;stroke-dasharray:none;stroke-dashoffset:0;stroke-opacity:1" />
      <rect
         transform="scale(-1,-1)"
         y="-799.36218"
         x="-343.78571"
         height="7.6428528"
         width="16"
         id="rect7264"
         style="opacity:1;fill:#ffffff;fill-opacity:1;stroke:#000000;stroke-width:4;stroke-linecap:round;stroke-linejoin:round;stroke-miterlimit:4;stroke-dasharray:none;stroke-dashoffset:0;stroke-opacity:1" />
    </g>
  </g>
</svg>
