<?xml version="1.0" encoding="UTF-8"?>
<svg width="16" height="16" version="1.1" viewBox="0 0 4 4" xmlns="http://www.w3.org/2000/svg">
 <g fill="#fff">
  <path transform="scale(.25)" d="m8.0801 0.53516a7.3661 7.3661 0 0 0-7.3652 7.3672 7.3661 7.3661 0 0 0 7.3652 7.3652 7.3661 7.3661 0 0 0 7.3672-7.3652 7.3661 7.3661 0 0 0-7.3672-7.3672zm-0.041016 1.25a6.1161 6.1161 0 0 1 0.041016 0 6.1161 6.1161 0 0 1 6.1172 6.1172 6.1161 6.1161 0 0 1-6.1172 6.1152 6.1161 6.1161 0 0 1-6.1152-6.1152 6.1161 6.1161 0 0 1 6.0742-6.1172z" style="paint-order:markers fill stroke"/>
  <path transform="scale(.25)" d="m5.3164 4.6621-0.63086 0.63086 2.541 2.543-2.541 2.541 0.63086 0.63086 2.541-2.541 2.541 2.541 0.63086-0.63086-2.541-2.541 2.541-2.543-0.63086-0.63086-2.541 2.541-2.541-2.541z" style="paint-order:markers fill stroke"/>
 </g>
</svg>
